G04 #@! TF.GenerationSoftware,KiCad,Pcbnew,(5.1.5)-3*
G04 #@! TF.CreationDate,2020-04-21T19:46:43+02:00*
G04 #@! TF.ProjectId,PowerSupply_v2,506f7765-7253-4757-9070-6c795f76322e,rev?*
G04 #@! TF.SameCoordinates,Original*
G04 #@! TF.FileFunction,Soldermask,Top*
G04 #@! TF.FilePolarity,Negative*
%FSLAX46Y46*%
G04 Gerber Fmt 4.6, Leading zero omitted, Abs format (unit mm)*
G04 Created by KiCad (PCBNEW (5.1.5)-3) date 2020-04-21 19:46:43*
%MOMM*%
%LPD*%
G04 APERTURE LIST*
%ADD10C,0.100000*%
G04 APERTURE END LIST*
D10*
G36*
X196035787Y-141585462D02*
G01*
X196035790Y-141585463D01*
X196035789Y-141585463D01*
X196682029Y-141853144D01*
X197263631Y-142241758D01*
X197758242Y-142736369D01*
X198146856Y-143317971D01*
X198146856Y-143317972D01*
X198414538Y-143964213D01*
X198551000Y-144650256D01*
X198551000Y-145349744D01*
X198414538Y-146035787D01*
X198361181Y-146164603D01*
X198146856Y-146682029D01*
X197758242Y-147263631D01*
X197263631Y-147758242D01*
X196682029Y-148146856D01*
X196225068Y-148336135D01*
X196035787Y-148414538D01*
X195349744Y-148551000D01*
X194650256Y-148551000D01*
X193964213Y-148414538D01*
X193774932Y-148336135D01*
X193317971Y-148146856D01*
X192736369Y-147758242D01*
X192241758Y-147263631D01*
X191853144Y-146682029D01*
X191638819Y-146164603D01*
X191585462Y-146035787D01*
X191449000Y-145349744D01*
X191449000Y-144650256D01*
X191585462Y-143964213D01*
X191853144Y-143317972D01*
X191853144Y-143317971D01*
X192241758Y-142736369D01*
X192736369Y-142241758D01*
X193317971Y-141853144D01*
X193964211Y-141585463D01*
X193964210Y-141585463D01*
X193964213Y-141585462D01*
X194650256Y-141449000D01*
X195349744Y-141449000D01*
X196035787Y-141585462D01*
G37*
G36*
X106035787Y-141585462D02*
G01*
X106035790Y-141585463D01*
X106035789Y-141585463D01*
X106682029Y-141853144D01*
X107263631Y-142241758D01*
X107758242Y-142736369D01*
X108146856Y-143317971D01*
X108146856Y-143317972D01*
X108414538Y-143964213D01*
X108551000Y-144650256D01*
X108551000Y-145349744D01*
X108414538Y-146035787D01*
X108361181Y-146164603D01*
X108146856Y-146682029D01*
X107758242Y-147263631D01*
X107263631Y-147758242D01*
X106682029Y-148146856D01*
X106225068Y-148336135D01*
X106035787Y-148414538D01*
X105349744Y-148551000D01*
X104650256Y-148551000D01*
X103964213Y-148414538D01*
X103774932Y-148336135D01*
X103317971Y-148146856D01*
X102736369Y-147758242D01*
X102241758Y-147263631D01*
X101853144Y-146682029D01*
X101638819Y-146164603D01*
X101585462Y-146035787D01*
X101449000Y-145349744D01*
X101449000Y-144650256D01*
X101585462Y-143964213D01*
X101853144Y-143317972D01*
X101853144Y-143317971D01*
X102241758Y-142736369D01*
X102736369Y-142241758D01*
X103317971Y-141853144D01*
X103964211Y-141585463D01*
X103964210Y-141585463D01*
X103964213Y-141585462D01*
X104650256Y-141449000D01*
X105349744Y-141449000D01*
X106035787Y-141585462D01*
G37*
G36*
X187065256Y-142968348D02*
G01*
X187171579Y-142989497D01*
X187472042Y-143113953D01*
X187742451Y-143294635D01*
X187972415Y-143524599D01*
X187972416Y-143524601D01*
X188153098Y-143795010D01*
X188277553Y-144095472D01*
X188341000Y-144414439D01*
X188341000Y-144739661D01*
X188277553Y-145058628D01*
X188156970Y-145349743D01*
X188153097Y-145359092D01*
X187972415Y-145629501D01*
X187742451Y-145859465D01*
X187472042Y-146040147D01*
X187171579Y-146164603D01*
X187065256Y-146185752D01*
X186852611Y-146228050D01*
X186527389Y-146228050D01*
X186314744Y-146185752D01*
X186208421Y-146164603D01*
X185907958Y-146040147D01*
X185637549Y-145859465D01*
X185407585Y-145629501D01*
X185226903Y-145359092D01*
X185223031Y-145349743D01*
X185102447Y-145058628D01*
X185039000Y-144739661D01*
X185039000Y-144414439D01*
X185102447Y-144095472D01*
X185226902Y-143795010D01*
X185407584Y-143524601D01*
X185407585Y-143524599D01*
X185637549Y-143294635D01*
X185907958Y-143113953D01*
X186208421Y-142989497D01*
X186314744Y-142968348D01*
X186527389Y-142926050D01*
X186852611Y-142926050D01*
X187065256Y-142968348D01*
G37*
G36*
X176905256Y-142968348D02*
G01*
X177011579Y-142989497D01*
X177312042Y-143113953D01*
X177582451Y-143294635D01*
X177812415Y-143524599D01*
X177812416Y-143524601D01*
X177993098Y-143795010D01*
X178117553Y-144095472D01*
X178181000Y-144414439D01*
X178181000Y-144739661D01*
X178117553Y-145058628D01*
X177996970Y-145349743D01*
X177993097Y-145359092D01*
X177812415Y-145629501D01*
X177582451Y-145859465D01*
X177312042Y-146040147D01*
X177011579Y-146164603D01*
X176905256Y-146185752D01*
X176692611Y-146228050D01*
X176367389Y-146228050D01*
X176154744Y-146185752D01*
X176048421Y-146164603D01*
X175747958Y-146040147D01*
X175477549Y-145859465D01*
X175247585Y-145629501D01*
X175066903Y-145359092D01*
X175063031Y-145349743D01*
X174942447Y-145058628D01*
X174879000Y-144739661D01*
X174879000Y-144414439D01*
X174942447Y-144095472D01*
X175066902Y-143795010D01*
X175247584Y-143524601D01*
X175247585Y-143524599D01*
X175477549Y-143294635D01*
X175747958Y-143113953D01*
X176048421Y-142989497D01*
X176154744Y-142968348D01*
X176367389Y-142926050D01*
X176692611Y-142926050D01*
X176905256Y-142968348D01*
G37*
G36*
X129915256Y-142968348D02*
G01*
X130021579Y-142989497D01*
X130322042Y-143113953D01*
X130592451Y-143294635D01*
X130822415Y-143524599D01*
X130822416Y-143524601D01*
X131003098Y-143795010D01*
X131127553Y-144095472D01*
X131191000Y-144414439D01*
X131191000Y-144739661D01*
X131127553Y-145058628D01*
X131006970Y-145349743D01*
X131003097Y-145359092D01*
X130822415Y-145629501D01*
X130592451Y-145859465D01*
X130322042Y-146040147D01*
X130021579Y-146164603D01*
X129915256Y-146185752D01*
X129702611Y-146228050D01*
X129377389Y-146228050D01*
X129164744Y-146185752D01*
X129058421Y-146164603D01*
X128757958Y-146040147D01*
X128487549Y-145859465D01*
X128257585Y-145629501D01*
X128076903Y-145359092D01*
X128073031Y-145349743D01*
X127952447Y-145058628D01*
X127889000Y-144739661D01*
X127889000Y-144414439D01*
X127952447Y-144095472D01*
X128076902Y-143795010D01*
X128257584Y-143524601D01*
X128257585Y-143524599D01*
X128487549Y-143294635D01*
X128757958Y-143113953D01*
X129058421Y-142989497D01*
X129164744Y-142968348D01*
X129377389Y-142926050D01*
X129702611Y-142926050D01*
X129915256Y-142968348D01*
G37*
G36*
X124835256Y-142968348D02*
G01*
X124941579Y-142989497D01*
X125242042Y-143113953D01*
X125512451Y-143294635D01*
X125742415Y-143524599D01*
X125742416Y-143524601D01*
X125923098Y-143795010D01*
X126047553Y-144095472D01*
X126111000Y-144414439D01*
X126111000Y-144739661D01*
X126047553Y-145058628D01*
X125926970Y-145349743D01*
X125923097Y-145359092D01*
X125742415Y-145629501D01*
X125512451Y-145859465D01*
X125242042Y-146040147D01*
X124941579Y-146164603D01*
X124835256Y-146185752D01*
X124622611Y-146228050D01*
X124297389Y-146228050D01*
X124084744Y-146185752D01*
X123978421Y-146164603D01*
X123677958Y-146040147D01*
X123407549Y-145859465D01*
X123177585Y-145629501D01*
X122996903Y-145359092D01*
X122993031Y-145349743D01*
X122872447Y-145058628D01*
X122809000Y-144739661D01*
X122809000Y-144414439D01*
X122872447Y-144095472D01*
X122996902Y-143795010D01*
X123177584Y-143524601D01*
X123177585Y-143524599D01*
X123407549Y-143294635D01*
X123677958Y-143113953D01*
X123978421Y-142989497D01*
X124084744Y-142968348D01*
X124297389Y-142926050D01*
X124622611Y-142926050D01*
X124835256Y-142968348D01*
G37*
G36*
X114675256Y-142968348D02*
G01*
X114781579Y-142989497D01*
X115082042Y-143113953D01*
X115352451Y-143294635D01*
X115582415Y-143524599D01*
X115582416Y-143524601D01*
X115763098Y-143795010D01*
X115887553Y-144095472D01*
X115951000Y-144414439D01*
X115951000Y-144739661D01*
X115887553Y-145058628D01*
X115766970Y-145349743D01*
X115763097Y-145359092D01*
X115582415Y-145629501D01*
X115352451Y-145859465D01*
X115082042Y-146040147D01*
X114781579Y-146164603D01*
X114675256Y-146185752D01*
X114462611Y-146228050D01*
X114137389Y-146228050D01*
X113924744Y-146185752D01*
X113818421Y-146164603D01*
X113517958Y-146040147D01*
X113247549Y-145859465D01*
X113017585Y-145629501D01*
X112836903Y-145359092D01*
X112833031Y-145349743D01*
X112712447Y-145058628D01*
X112649000Y-144739661D01*
X112649000Y-144414439D01*
X112712447Y-144095472D01*
X112836902Y-143795010D01*
X113017584Y-143524601D01*
X113017585Y-143524599D01*
X113247549Y-143294635D01*
X113517958Y-143113953D01*
X113818421Y-142989497D01*
X113924744Y-142968348D01*
X114137389Y-142926050D01*
X114462611Y-142926050D01*
X114675256Y-142968348D01*
G37*
G36*
X171825256Y-142968348D02*
G01*
X171931579Y-142989497D01*
X172232042Y-143113953D01*
X172502451Y-143294635D01*
X172732415Y-143524599D01*
X172732416Y-143524601D01*
X172913098Y-143795010D01*
X173037553Y-144095472D01*
X173101000Y-144414439D01*
X173101000Y-144739661D01*
X173037553Y-145058628D01*
X172916970Y-145349743D01*
X172913097Y-145359092D01*
X172732415Y-145629501D01*
X172502451Y-145859465D01*
X172232042Y-146040147D01*
X171931579Y-146164603D01*
X171825256Y-146185752D01*
X171612611Y-146228050D01*
X171287389Y-146228050D01*
X171074744Y-146185752D01*
X170968421Y-146164603D01*
X170667958Y-146040147D01*
X170397549Y-145859465D01*
X170167585Y-145629501D01*
X169986903Y-145359092D01*
X169983031Y-145349743D01*
X169862447Y-145058628D01*
X169799000Y-144739661D01*
X169799000Y-144414439D01*
X169862447Y-144095472D01*
X169986902Y-143795010D01*
X170167584Y-143524601D01*
X170167585Y-143524599D01*
X170397549Y-143294635D01*
X170667958Y-143113953D01*
X170968421Y-142989497D01*
X171074744Y-142968348D01*
X171287389Y-142926050D01*
X171612611Y-142926050D01*
X171825256Y-142968348D01*
G37*
G36*
X181985256Y-142968348D02*
G01*
X182091579Y-142989497D01*
X182392042Y-143113953D01*
X182662451Y-143294635D01*
X182892415Y-143524599D01*
X182892416Y-143524601D01*
X183073098Y-143795010D01*
X183197553Y-144095472D01*
X183261000Y-144414439D01*
X183261000Y-144739661D01*
X183197553Y-145058628D01*
X183076970Y-145349743D01*
X183073097Y-145359092D01*
X182892415Y-145629501D01*
X182662451Y-145859465D01*
X182392042Y-146040147D01*
X182091579Y-146164603D01*
X181985256Y-146185752D01*
X181772611Y-146228050D01*
X181447389Y-146228050D01*
X181234744Y-146185752D01*
X181128421Y-146164603D01*
X180827958Y-146040147D01*
X180557549Y-145859465D01*
X180327585Y-145629501D01*
X180146903Y-145359092D01*
X180143031Y-145349743D01*
X180022447Y-145058628D01*
X179959000Y-144739661D01*
X179959000Y-144414439D01*
X180022447Y-144095472D01*
X180146902Y-143795010D01*
X180327584Y-143524601D01*
X180327585Y-143524599D01*
X180557549Y-143294635D01*
X180827958Y-143113953D01*
X181128421Y-142989497D01*
X181234744Y-142968348D01*
X181447389Y-142926050D01*
X181772611Y-142926050D01*
X181985256Y-142968348D01*
G37*
G36*
X119755256Y-142968348D02*
G01*
X119861579Y-142989497D01*
X120162042Y-143113953D01*
X120432451Y-143294635D01*
X120662415Y-143524599D01*
X120662416Y-143524601D01*
X120843098Y-143795010D01*
X120967553Y-144095472D01*
X121031000Y-144414439D01*
X121031000Y-144739661D01*
X120967553Y-145058628D01*
X120846970Y-145349743D01*
X120843097Y-145359092D01*
X120662415Y-145629501D01*
X120432451Y-145859465D01*
X120162042Y-146040147D01*
X119861579Y-146164603D01*
X119755256Y-146185752D01*
X119542611Y-146228050D01*
X119217389Y-146228050D01*
X119004744Y-146185752D01*
X118898421Y-146164603D01*
X118597958Y-146040147D01*
X118327549Y-145859465D01*
X118097585Y-145629501D01*
X117916903Y-145359092D01*
X117913031Y-145349743D01*
X117792447Y-145058628D01*
X117729000Y-144739661D01*
X117729000Y-144414439D01*
X117792447Y-144095472D01*
X117916902Y-143795010D01*
X118097584Y-143524601D01*
X118097585Y-143524599D01*
X118327549Y-143294635D01*
X118597958Y-143113953D01*
X118898421Y-142989497D01*
X119004744Y-142968348D01*
X119217389Y-142926050D01*
X119542611Y-142926050D01*
X119755256Y-142968348D01*
G37*
G36*
X190306564Y-130989389D02*
G01*
X190497833Y-131068615D01*
X190497835Y-131068616D01*
X190669973Y-131183635D01*
X190816365Y-131330027D01*
X190931385Y-131502167D01*
X191010611Y-131693436D01*
X191051000Y-131896484D01*
X191051000Y-132103516D01*
X191010611Y-132306564D01*
X190931385Y-132497833D01*
X190931384Y-132497835D01*
X190816365Y-132669973D01*
X190669973Y-132816365D01*
X190497835Y-132931384D01*
X190497834Y-132931385D01*
X190497833Y-132931385D01*
X190306564Y-133010611D01*
X190103516Y-133051000D01*
X189896484Y-133051000D01*
X189693436Y-133010611D01*
X189502167Y-132931385D01*
X189502166Y-132931385D01*
X189502165Y-132931384D01*
X189330027Y-132816365D01*
X189183635Y-132669973D01*
X189068616Y-132497835D01*
X189068615Y-132497833D01*
X188989389Y-132306564D01*
X188949000Y-132103516D01*
X188949000Y-131896484D01*
X188989389Y-131693436D01*
X189068615Y-131502167D01*
X189183635Y-131330027D01*
X189330027Y-131183635D01*
X189502165Y-131068616D01*
X189502167Y-131068615D01*
X189693436Y-130989389D01*
X189896484Y-130949000D01*
X190103516Y-130949000D01*
X190306564Y-130989389D01*
G37*
G36*
X153566000Y-131891000D02*
G01*
X149964000Y-131891000D01*
X149964000Y-127189000D01*
X153566000Y-127189000D01*
X153566000Y-131891000D01*
G37*
G36*
X165066000Y-131891000D02*
G01*
X161464000Y-131891000D01*
X161464000Y-127189000D01*
X165066000Y-127189000D01*
X165066000Y-131891000D01*
G37*
G36*
X173928228Y-128721703D02*
G01*
X174083100Y-128785853D01*
X174222481Y-128878985D01*
X174341015Y-128997519D01*
X174434147Y-129136900D01*
X174498297Y-129291772D01*
X174531000Y-129456184D01*
X174531000Y-129623816D01*
X174498297Y-129788228D01*
X174434147Y-129943100D01*
X174341015Y-130082481D01*
X174222481Y-130201015D01*
X174083100Y-130294147D01*
X173928228Y-130358297D01*
X173763816Y-130391000D01*
X173596184Y-130391000D01*
X173431772Y-130358297D01*
X173276900Y-130294147D01*
X173137519Y-130201015D01*
X173018985Y-130082481D01*
X172925853Y-129943100D01*
X172861703Y-129788228D01*
X172829000Y-129623816D01*
X172829000Y-129456184D01*
X172861703Y-129291772D01*
X172925853Y-129136900D01*
X173018985Y-128997519D01*
X173137519Y-128878985D01*
X173276900Y-128785853D01*
X173431772Y-128721703D01*
X173596184Y-128689000D01*
X173763816Y-128689000D01*
X173928228Y-128721703D01*
G37*
G36*
X115508228Y-128721703D02*
G01*
X115663100Y-128785853D01*
X115802481Y-128878985D01*
X115921015Y-128997519D01*
X116014147Y-129136900D01*
X116078297Y-129291772D01*
X116111000Y-129456184D01*
X116111000Y-129623816D01*
X116078297Y-129788228D01*
X116014147Y-129943100D01*
X115921015Y-130082481D01*
X115802481Y-130201015D01*
X115663100Y-130294147D01*
X115508228Y-130358297D01*
X115343816Y-130391000D01*
X115176184Y-130391000D01*
X115011772Y-130358297D01*
X114856900Y-130294147D01*
X114717519Y-130201015D01*
X114598985Y-130082481D01*
X114505853Y-129943100D01*
X114441703Y-129788228D01*
X114409000Y-129623816D01*
X114409000Y-129456184D01*
X114441703Y-129291772D01*
X114505853Y-129136900D01*
X114598985Y-128997519D01*
X114717519Y-128878985D01*
X114856900Y-128785853D01*
X115011772Y-128721703D01*
X115176184Y-128689000D01*
X115343816Y-128689000D01*
X115508228Y-128721703D01*
G37*
G36*
X112611000Y-130391000D02*
G01*
X110909000Y-130391000D01*
X110909000Y-128689000D01*
X112611000Y-128689000D01*
X112611000Y-130391000D01*
G37*
G36*
X130391000Y-130391000D02*
G01*
X128689000Y-130391000D01*
X128689000Y-128689000D01*
X130391000Y-128689000D01*
X130391000Y-130391000D01*
G37*
G36*
X171031000Y-130391000D02*
G01*
X169329000Y-130391000D01*
X169329000Y-128689000D01*
X171031000Y-128689000D01*
X171031000Y-130391000D01*
G37*
G36*
X133288228Y-128721703D02*
G01*
X133443100Y-128785853D01*
X133582481Y-128878985D01*
X133701015Y-128997519D01*
X133794147Y-129136900D01*
X133858297Y-129291772D01*
X133891000Y-129456184D01*
X133891000Y-129623816D01*
X133858297Y-129788228D01*
X133794147Y-129943100D01*
X133701015Y-130082481D01*
X133582481Y-130201015D01*
X133443100Y-130294147D01*
X133288228Y-130358297D01*
X133123816Y-130391000D01*
X132956184Y-130391000D01*
X132791772Y-130358297D01*
X132636900Y-130294147D01*
X132497519Y-130201015D01*
X132378985Y-130082481D01*
X132285853Y-129943100D01*
X132221703Y-129788228D01*
X132189000Y-129623816D01*
X132189000Y-129456184D01*
X132221703Y-129291772D01*
X132285853Y-129136900D01*
X132378985Y-128997519D01*
X132497519Y-128878985D01*
X132636900Y-128785853D01*
X132791772Y-128721703D01*
X132956184Y-128689000D01*
X133123816Y-128689000D01*
X133288228Y-128721703D01*
G37*
G36*
X191051000Y-128051000D02*
G01*
X188949000Y-128051000D01*
X188949000Y-125949000D01*
X191051000Y-125949000D01*
X191051000Y-128051000D01*
G37*
G36*
X192351000Y-121886000D02*
G01*
X187649000Y-121886000D01*
X187649000Y-118284000D01*
X192351000Y-118284000D01*
X192351000Y-121886000D01*
G37*
G36*
X171196000Y-119761000D02*
G01*
X167894000Y-119761000D01*
X167894000Y-116459000D01*
X171196000Y-116459000D01*
X171196000Y-119761000D01*
G37*
G36*
X179139468Y-116438615D02*
G01*
X179178138Y-116450346D01*
X179213777Y-116469396D01*
X179245017Y-116495033D01*
X179270654Y-116526273D01*
X179289704Y-116561912D01*
X179301435Y-116600582D01*
X179306000Y-116646938D01*
X179306000Y-117723162D01*
X179301435Y-117769518D01*
X179289704Y-117808188D01*
X179270654Y-117843827D01*
X179245017Y-117875067D01*
X179213777Y-117900704D01*
X179178138Y-117919754D01*
X179139468Y-117931485D01*
X179093112Y-117936050D01*
X178441888Y-117936050D01*
X178395532Y-117931485D01*
X178356862Y-117919754D01*
X178321223Y-117900704D01*
X178289983Y-117875067D01*
X178264346Y-117843827D01*
X178245296Y-117808188D01*
X178233565Y-117769518D01*
X178229000Y-117723162D01*
X178229000Y-116646938D01*
X178233565Y-116600582D01*
X178245296Y-116561912D01*
X178264346Y-116526273D01*
X178289983Y-116495033D01*
X178321223Y-116469396D01*
X178356862Y-116450346D01*
X178395532Y-116438615D01*
X178441888Y-116434050D01*
X179093112Y-116434050D01*
X179139468Y-116438615D01*
G37*
G36*
X177264468Y-116438615D02*
G01*
X177303138Y-116450346D01*
X177338777Y-116469396D01*
X177370017Y-116495033D01*
X177395654Y-116526273D01*
X177414704Y-116561912D01*
X177426435Y-116600582D01*
X177431000Y-116646938D01*
X177431000Y-117723162D01*
X177426435Y-117769518D01*
X177414704Y-117808188D01*
X177395654Y-117843827D01*
X177370017Y-117875067D01*
X177338777Y-117900704D01*
X177303138Y-117919754D01*
X177264468Y-117931485D01*
X177218112Y-117936050D01*
X176566888Y-117936050D01*
X176520532Y-117931485D01*
X176481862Y-117919754D01*
X176446223Y-117900704D01*
X176414983Y-117875067D01*
X176389346Y-117843827D01*
X176370296Y-117808188D01*
X176358565Y-117769518D01*
X176354000Y-117723162D01*
X176354000Y-116646938D01*
X176358565Y-116600582D01*
X176370296Y-116561912D01*
X176389346Y-116526273D01*
X176414983Y-116495033D01*
X176446223Y-116469396D01*
X176481862Y-116450346D01*
X176520532Y-116438615D01*
X176566888Y-116434050D01*
X177218112Y-116434050D01*
X177264468Y-116438615D01*
G37*
G36*
X118006000Y-117921000D02*
G01*
X114404000Y-117921000D01*
X114404000Y-113219000D01*
X118006000Y-113219000D01*
X118006000Y-117921000D01*
G37*
G36*
X129506000Y-117921000D02*
G01*
X125904000Y-117921000D01*
X125904000Y-113219000D01*
X129506000Y-113219000D01*
X129506000Y-117921000D01*
G37*
G36*
X159781000Y-117346000D02*
G01*
X158579000Y-117346000D01*
X158579000Y-112644000D01*
X159781000Y-112644000D01*
X159781000Y-117346000D01*
G37*
G36*
X158081000Y-117346000D02*
G01*
X156879000Y-117346000D01*
X156879000Y-112644000D01*
X158081000Y-112644000D01*
X158081000Y-117346000D01*
G37*
G36*
X156381000Y-117346000D02*
G01*
X155179000Y-117346000D01*
X155179000Y-112644000D01*
X156381000Y-112644000D01*
X156381000Y-117346000D01*
G37*
G36*
X154681000Y-117346000D02*
G01*
X153479000Y-117346000D01*
X153479000Y-112644000D01*
X154681000Y-112644000D01*
X154681000Y-117346000D01*
G37*
G36*
X161481000Y-117346000D02*
G01*
X160279000Y-117346000D01*
X160279000Y-112644000D01*
X161481000Y-112644000D01*
X161481000Y-117346000D01*
G37*
G36*
X177264468Y-112628615D02*
G01*
X177303138Y-112640346D01*
X177338777Y-112659396D01*
X177370017Y-112685033D01*
X177395654Y-112716273D01*
X177414704Y-112751912D01*
X177426435Y-112790582D01*
X177431000Y-112836938D01*
X177431000Y-113913162D01*
X177426435Y-113959518D01*
X177414704Y-113998188D01*
X177395654Y-114033827D01*
X177370017Y-114065067D01*
X177338777Y-114090704D01*
X177303138Y-114109754D01*
X177264468Y-114121485D01*
X177218112Y-114126050D01*
X176566888Y-114126050D01*
X176520532Y-114121485D01*
X176481862Y-114109754D01*
X176446223Y-114090704D01*
X176414983Y-114065067D01*
X176389346Y-114033827D01*
X176370296Y-113998188D01*
X176358565Y-113959518D01*
X176354000Y-113913162D01*
X176354000Y-112836938D01*
X176358565Y-112790582D01*
X176370296Y-112751912D01*
X176389346Y-112716273D01*
X176414983Y-112685033D01*
X176446223Y-112659396D01*
X176481862Y-112640346D01*
X176520532Y-112628615D01*
X176566888Y-112624050D01*
X177218112Y-112624050D01*
X177264468Y-112628615D01*
G37*
G36*
X179139468Y-112628615D02*
G01*
X179178138Y-112640346D01*
X179213777Y-112659396D01*
X179245017Y-112685033D01*
X179270654Y-112716273D01*
X179289704Y-112751912D01*
X179301435Y-112790582D01*
X179306000Y-112836938D01*
X179306000Y-113913162D01*
X179301435Y-113959518D01*
X179289704Y-113998188D01*
X179270654Y-114033827D01*
X179245017Y-114065067D01*
X179213777Y-114090704D01*
X179178138Y-114109754D01*
X179139468Y-114121485D01*
X179093112Y-114126050D01*
X178441888Y-114126050D01*
X178395532Y-114121485D01*
X178356862Y-114109754D01*
X178321223Y-114090704D01*
X178289983Y-114065067D01*
X178264346Y-114033827D01*
X178245296Y-113998188D01*
X178233565Y-113959518D01*
X178229000Y-113913162D01*
X178229000Y-112836938D01*
X178233565Y-112790582D01*
X178245296Y-112751912D01*
X178264346Y-112716273D01*
X178289983Y-112685033D01*
X178321223Y-112659396D01*
X178356862Y-112640346D01*
X178395532Y-112628615D01*
X178441888Y-112624050D01*
X179093112Y-112624050D01*
X179139468Y-112628615D01*
G37*
G36*
X105785256Y-108246298D02*
G01*
X105891579Y-108267447D01*
X106192042Y-108391903D01*
X106462451Y-108572585D01*
X106692415Y-108802549D01*
X106873097Y-109072958D01*
X106997553Y-109373421D01*
X107061000Y-109692391D01*
X107061000Y-110017609D01*
X106997553Y-110336579D01*
X106873097Y-110637042D01*
X106692415Y-110907451D01*
X106462451Y-111137415D01*
X106192042Y-111318097D01*
X105891579Y-111442553D01*
X105785256Y-111463702D01*
X105572611Y-111506000D01*
X105247389Y-111506000D01*
X105034744Y-111463702D01*
X104928421Y-111442553D01*
X104627958Y-111318097D01*
X104357549Y-111137415D01*
X104127585Y-110907451D01*
X103946903Y-110637042D01*
X103822447Y-110336579D01*
X103759000Y-110017609D01*
X103759000Y-109692391D01*
X103822447Y-109373421D01*
X103946903Y-109072958D01*
X104127585Y-108802549D01*
X104357549Y-108572585D01*
X104627958Y-108391903D01*
X104928421Y-108267447D01*
X105034744Y-108246298D01*
X105247389Y-108204000D01*
X105572611Y-108204000D01*
X105785256Y-108246298D01*
G37*
G36*
X148556000Y-110936000D02*
G01*
X144954000Y-110936000D01*
X144954000Y-106234000D01*
X148556000Y-106234000D01*
X148556000Y-110936000D01*
G37*
G36*
X137056000Y-110936000D02*
G01*
X133454000Y-110936000D01*
X133454000Y-106234000D01*
X137056000Y-106234000D01*
X137056000Y-110936000D01*
G37*
G36*
X162931000Y-110596000D02*
G01*
X152029000Y-110596000D01*
X152029000Y-101094000D01*
X162931000Y-101094000D01*
X162931000Y-110596000D01*
G37*
G36*
X192351000Y-110386000D02*
G01*
X187649000Y-110386000D01*
X187649000Y-106784000D01*
X192351000Y-106784000D01*
X192351000Y-110386000D01*
G37*
G36*
X179109468Y-108473565D02*
G01*
X179148138Y-108485296D01*
X179183777Y-108504346D01*
X179215017Y-108529983D01*
X179240654Y-108561223D01*
X179259704Y-108596862D01*
X179271435Y-108635532D01*
X179276000Y-108681888D01*
X179276000Y-109758112D01*
X179271435Y-109804468D01*
X179259704Y-109843138D01*
X179240654Y-109878777D01*
X179215017Y-109910017D01*
X179183777Y-109935654D01*
X179148138Y-109954704D01*
X179109468Y-109966435D01*
X179063112Y-109971000D01*
X178411888Y-109971000D01*
X178365532Y-109966435D01*
X178326862Y-109954704D01*
X178291223Y-109935654D01*
X178259983Y-109910017D01*
X178234346Y-109878777D01*
X178215296Y-109843138D01*
X178203565Y-109804468D01*
X178199000Y-109758112D01*
X178199000Y-108681888D01*
X178203565Y-108635532D01*
X178215296Y-108596862D01*
X178234346Y-108561223D01*
X178259983Y-108529983D01*
X178291223Y-108504346D01*
X178326862Y-108485296D01*
X178365532Y-108473565D01*
X178411888Y-108469000D01*
X179063112Y-108469000D01*
X179109468Y-108473565D01*
G37*
G36*
X177234468Y-108473565D02*
G01*
X177273138Y-108485296D01*
X177308777Y-108504346D01*
X177340017Y-108529983D01*
X177365654Y-108561223D01*
X177384704Y-108596862D01*
X177396435Y-108635532D01*
X177401000Y-108681888D01*
X177401000Y-109758112D01*
X177396435Y-109804468D01*
X177384704Y-109843138D01*
X177365654Y-109878777D01*
X177340017Y-109910017D01*
X177308777Y-109935654D01*
X177273138Y-109954704D01*
X177234468Y-109966435D01*
X177188112Y-109971000D01*
X176536888Y-109971000D01*
X176490532Y-109966435D01*
X176451862Y-109954704D01*
X176416223Y-109935654D01*
X176384983Y-109910017D01*
X176359346Y-109878777D01*
X176340296Y-109843138D01*
X176328565Y-109804468D01*
X176324000Y-109758112D01*
X176324000Y-108681888D01*
X176328565Y-108635532D01*
X176340296Y-108596862D01*
X176359346Y-108561223D01*
X176384983Y-108529983D01*
X176416223Y-108504346D01*
X176451862Y-108485296D01*
X176490532Y-108473565D01*
X176536888Y-108469000D01*
X177188112Y-108469000D01*
X177234468Y-108473565D01*
G37*
G36*
X169920256Y-103801298D02*
G01*
X170026579Y-103822447D01*
X170327042Y-103946903D01*
X170597451Y-104127585D01*
X170827415Y-104357549D01*
X171008097Y-104627958D01*
X171132553Y-104928421D01*
X171196000Y-105247391D01*
X171196000Y-105572609D01*
X171132553Y-105891579D01*
X171008097Y-106192042D01*
X170827415Y-106462451D01*
X170597451Y-106692415D01*
X170327042Y-106873097D01*
X170026579Y-106997553D01*
X169920256Y-107018702D01*
X169707611Y-107061000D01*
X169382389Y-107061000D01*
X169169744Y-107018702D01*
X169063421Y-106997553D01*
X168762958Y-106873097D01*
X168492549Y-106692415D01*
X168262585Y-106462451D01*
X168081903Y-106192042D01*
X167957447Y-105891579D01*
X167894000Y-105572609D01*
X167894000Y-105247391D01*
X167957447Y-104928421D01*
X168081903Y-104627958D01*
X168262585Y-104357549D01*
X168492549Y-104127585D01*
X168762958Y-103946903D01*
X169063421Y-103822447D01*
X169169744Y-103801298D01*
X169382389Y-103759000D01*
X169707611Y-103759000D01*
X169920256Y-103801298D01*
G37*
G36*
X130046000Y-106416000D02*
G01*
X120544000Y-106416000D01*
X120544000Y-95514000D01*
X130046000Y-95514000D01*
X130046000Y-106416000D01*
G37*
G36*
X118496000Y-104966000D02*
G01*
X113794000Y-104966000D01*
X113794000Y-103764000D01*
X118496000Y-103764000D01*
X118496000Y-104966000D01*
G37*
G36*
X118496000Y-103266000D02*
G01*
X113794000Y-103266000D01*
X113794000Y-102064000D01*
X118496000Y-102064000D01*
X118496000Y-103266000D01*
G37*
G36*
X118496000Y-101566000D02*
G01*
X113794000Y-101566000D01*
X113794000Y-100364000D01*
X118496000Y-100364000D01*
X118496000Y-101566000D01*
G37*
G36*
X184151000Y-101346000D02*
G01*
X180849000Y-101346000D01*
X180849000Y-98044000D01*
X184151000Y-98044000D01*
X184151000Y-101346000D01*
G37*
G36*
X195575256Y-98086298D02*
G01*
X195681579Y-98107447D01*
X195982042Y-98231903D01*
X196252451Y-98412585D01*
X196482415Y-98642549D01*
X196663097Y-98912958D01*
X196787553Y-99213421D01*
X196851000Y-99532391D01*
X196851000Y-99857609D01*
X196787553Y-100176579D01*
X196663097Y-100477042D01*
X196482415Y-100747451D01*
X196252451Y-100977415D01*
X195982042Y-101158097D01*
X195681579Y-101282553D01*
X195575256Y-101303702D01*
X195362611Y-101346000D01*
X195037389Y-101346000D01*
X194824744Y-101303702D01*
X194718421Y-101282553D01*
X194417958Y-101158097D01*
X194147549Y-100977415D01*
X193917585Y-100747451D01*
X193736903Y-100477042D01*
X193612447Y-100176579D01*
X193549000Y-99857609D01*
X193549000Y-99532391D01*
X193612447Y-99213421D01*
X193736903Y-98912958D01*
X193917585Y-98642549D01*
X194147549Y-98412585D01*
X194417958Y-98231903D01*
X194718421Y-98107447D01*
X194824744Y-98086298D01*
X195037389Y-98044000D01*
X195362611Y-98044000D01*
X195575256Y-98086298D01*
G37*
G36*
X118496000Y-99866000D02*
G01*
X113794000Y-99866000D01*
X113794000Y-98664000D01*
X118496000Y-98664000D01*
X118496000Y-99866000D01*
G37*
G36*
X107061000Y-98806000D02*
G01*
X103759000Y-98806000D01*
X103759000Y-95504000D01*
X107061000Y-95504000D01*
X107061000Y-98806000D01*
G37*
G36*
X118496000Y-98166000D02*
G01*
X113794000Y-98166000D01*
X113794000Y-96964000D01*
X118496000Y-96964000D01*
X118496000Y-98166000D01*
G37*
G36*
X147060256Y-93006298D02*
G01*
X147166579Y-93027447D01*
X147467042Y-93151903D01*
X147737451Y-93332585D01*
X147967415Y-93562549D01*
X148148097Y-93832958D01*
X148272553Y-94133421D01*
X148336000Y-94452391D01*
X148336000Y-94777609D01*
X148272553Y-95096579D01*
X148148097Y-95397042D01*
X147967415Y-95667451D01*
X147737451Y-95897415D01*
X147467042Y-96078097D01*
X147166579Y-96202553D01*
X147060256Y-96223702D01*
X146847611Y-96266000D01*
X146522389Y-96266000D01*
X146309744Y-96223702D01*
X146203421Y-96202553D01*
X145902958Y-96078097D01*
X145632549Y-95897415D01*
X145402585Y-95667451D01*
X145221903Y-95397042D01*
X145097447Y-95096579D01*
X145034000Y-94777609D01*
X145034000Y-94452391D01*
X145097447Y-94133421D01*
X145221903Y-93832958D01*
X145402585Y-93562549D01*
X145632549Y-93332585D01*
X145902958Y-93151903D01*
X146203421Y-93027447D01*
X146309744Y-93006298D01*
X146522389Y-92964000D01*
X146847611Y-92964000D01*
X147060256Y-93006298D01*
G37*
G36*
X135636000Y-96266000D02*
G01*
X132334000Y-96266000D01*
X132334000Y-92964000D01*
X135636000Y-92964000D01*
X135636000Y-96266000D01*
G37*
G36*
X158751000Y-96251000D02*
G01*
X156249000Y-96251000D01*
X156249000Y-93749000D01*
X158751000Y-93749000D01*
X158751000Y-96251000D01*
G37*
G36*
X157864903Y-88797075D02*
G01*
X158092571Y-88891378D01*
X158297466Y-89028285D01*
X158471715Y-89202534D01*
X158608622Y-89407429D01*
X158702925Y-89635097D01*
X158751000Y-89876787D01*
X158751000Y-90123213D01*
X158702925Y-90364903D01*
X158608622Y-90592571D01*
X158471715Y-90797466D01*
X158297466Y-90971715D01*
X158092571Y-91108622D01*
X158092570Y-91108623D01*
X158092569Y-91108623D01*
X157864903Y-91202925D01*
X157623214Y-91251000D01*
X157376786Y-91251000D01*
X157135097Y-91202925D01*
X156907431Y-91108623D01*
X156907430Y-91108623D01*
X156907429Y-91108622D01*
X156702534Y-90971715D01*
X156528285Y-90797466D01*
X156391378Y-90592571D01*
X156297075Y-90364903D01*
X156249000Y-90123213D01*
X156249000Y-89876787D01*
X156297075Y-89635097D01*
X156391378Y-89407429D01*
X156528285Y-89202534D01*
X156702534Y-89028285D01*
X156907429Y-88891378D01*
X157135097Y-88797075D01*
X157376786Y-88749000D01*
X157623214Y-88749000D01*
X157864903Y-88797075D01*
G37*
G36*
X191531000Y-90676000D02*
G01*
X190329000Y-90676000D01*
X190329000Y-85974000D01*
X191531000Y-85974000D01*
X191531000Y-90676000D01*
G37*
G36*
X188131000Y-90676000D02*
G01*
X186929000Y-90676000D01*
X186929000Y-85974000D01*
X188131000Y-85974000D01*
X188131000Y-90676000D01*
G37*
G36*
X193231000Y-90676000D02*
G01*
X192029000Y-90676000D01*
X192029000Y-85974000D01*
X193231000Y-85974000D01*
X193231000Y-90676000D01*
G37*
G36*
X186431000Y-90676000D02*
G01*
X185229000Y-90676000D01*
X185229000Y-85974000D01*
X186431000Y-85974000D01*
X186431000Y-90676000D01*
G37*
G36*
X189831000Y-90676000D02*
G01*
X188629000Y-90676000D01*
X188629000Y-85974000D01*
X189831000Y-85974000D01*
X189831000Y-90676000D01*
G37*
G36*
X173751000Y-88751000D02*
G01*
X171249000Y-88751000D01*
X171249000Y-86249000D01*
X173751000Y-86249000D01*
X173751000Y-88751000D01*
G37*
G36*
X145176000Y-87501000D02*
G01*
X143974000Y-87501000D01*
X143974000Y-82799000D01*
X145176000Y-82799000D01*
X145176000Y-87501000D01*
G37*
G36*
X140076000Y-87501000D02*
G01*
X138874000Y-87501000D01*
X138874000Y-82799000D01*
X140076000Y-82799000D01*
X140076000Y-87501000D01*
G37*
G36*
X141776000Y-87501000D02*
G01*
X140574000Y-87501000D01*
X140574000Y-82799000D01*
X141776000Y-82799000D01*
X141776000Y-87501000D01*
G37*
G36*
X146876000Y-87501000D02*
G01*
X145674000Y-87501000D01*
X145674000Y-82799000D01*
X146876000Y-82799000D01*
X146876000Y-87501000D01*
G37*
G36*
X143476000Y-87501000D02*
G01*
X142274000Y-87501000D01*
X142274000Y-82799000D01*
X143476000Y-82799000D01*
X143476000Y-87501000D01*
G37*
G36*
X110471000Y-87281050D02*
G01*
X107969000Y-87281050D01*
X107969000Y-84779050D01*
X110471000Y-84779050D01*
X110471000Y-87281050D01*
G37*
G36*
X114584903Y-84827125D02*
G01*
X114812571Y-84921428D01*
X115017466Y-85058335D01*
X115191715Y-85232584D01*
X115328622Y-85437479D01*
X115422925Y-85665147D01*
X115471000Y-85906837D01*
X115471000Y-86153263D01*
X115422925Y-86394953D01*
X115328622Y-86622621D01*
X115191715Y-86827516D01*
X115017466Y-87001765D01*
X114812571Y-87138672D01*
X114812570Y-87138673D01*
X114812569Y-87138673D01*
X114584903Y-87232975D01*
X114343214Y-87281050D01*
X114096786Y-87281050D01*
X113855097Y-87232975D01*
X113627431Y-87138673D01*
X113627430Y-87138673D01*
X113627429Y-87138672D01*
X113422534Y-87001765D01*
X113248285Y-86827516D01*
X113111378Y-86622621D01*
X113017075Y-86394953D01*
X112969000Y-86153263D01*
X112969000Y-85906837D01*
X113017075Y-85665147D01*
X113111378Y-85437479D01*
X113248285Y-85232584D01*
X113422534Y-85058335D01*
X113627429Y-84921428D01*
X113855097Y-84827125D01*
X114096786Y-84779050D01*
X114343214Y-84779050D01*
X114584903Y-84827125D01*
G37*
G36*
X194681000Y-83926000D02*
G01*
X183779000Y-83926000D01*
X183779000Y-74424000D01*
X194681000Y-74424000D01*
X194681000Y-83926000D01*
G37*
G36*
X172864903Y-81297075D02*
G01*
X173092571Y-81391378D01*
X173297466Y-81528285D01*
X173471715Y-81702534D01*
X173608622Y-81907429D01*
X173702925Y-82135097D01*
X173751000Y-82376787D01*
X173751000Y-82623213D01*
X173702925Y-82864903D01*
X173608622Y-83092571D01*
X173471715Y-83297466D01*
X173297466Y-83471715D01*
X173092571Y-83608622D01*
X173092570Y-83608623D01*
X173092569Y-83608623D01*
X172864903Y-83702925D01*
X172623214Y-83751000D01*
X172376786Y-83751000D01*
X172135097Y-83702925D01*
X171907431Y-83608623D01*
X171907430Y-83608623D01*
X171907429Y-83608622D01*
X171702534Y-83471715D01*
X171528285Y-83297466D01*
X171391378Y-83092571D01*
X171297075Y-82864903D01*
X171249000Y-82623213D01*
X171249000Y-82376787D01*
X171297075Y-82135097D01*
X171391378Y-81907429D01*
X171528285Y-81702534D01*
X171702534Y-81528285D01*
X171907429Y-81391378D01*
X172135097Y-81297075D01*
X172376786Y-81249000D01*
X172623214Y-81249000D01*
X172864903Y-81297075D01*
G37*
G36*
X148326000Y-80751000D02*
G01*
X137424000Y-80751000D01*
X137424000Y-71249000D01*
X148326000Y-71249000D01*
X148326000Y-80751000D01*
G37*
G36*
X157844903Y-77417075D02*
G01*
X158072571Y-77511378D01*
X158277466Y-77648285D01*
X158451715Y-77822534D01*
X158588622Y-78027429D01*
X158682925Y-78255097D01*
X158731000Y-78496787D01*
X158731000Y-78743213D01*
X158682925Y-78984903D01*
X158588622Y-79212571D01*
X158451715Y-79417466D01*
X158277466Y-79591715D01*
X158072571Y-79728622D01*
X158072570Y-79728623D01*
X158072569Y-79728623D01*
X157844903Y-79822925D01*
X157603214Y-79871000D01*
X157356786Y-79871000D01*
X157115097Y-79822925D01*
X156887431Y-79728623D01*
X156887430Y-79728623D01*
X156887429Y-79728622D01*
X156682534Y-79591715D01*
X156508285Y-79417466D01*
X156371378Y-79212571D01*
X156277075Y-78984903D01*
X156229000Y-78743213D01*
X156229000Y-78496787D01*
X156277075Y-78255097D01*
X156371378Y-78027429D01*
X156508285Y-77822534D01*
X156682534Y-77648285D01*
X156887429Y-77511378D01*
X157115097Y-77417075D01*
X157356786Y-77369000D01*
X157603214Y-77369000D01*
X157844903Y-77417075D01*
G37*
G36*
X131729903Y-70857125D02*
G01*
X131957571Y-70951428D01*
X132162466Y-71088335D01*
X132336715Y-71262584D01*
X132473622Y-71467479D01*
X132567925Y-71695147D01*
X132616000Y-71936837D01*
X132616000Y-72183263D01*
X132567925Y-72424953D01*
X132473622Y-72652621D01*
X132336715Y-72857516D01*
X132162466Y-73031765D01*
X131957571Y-73168672D01*
X131957570Y-73168673D01*
X131957569Y-73168673D01*
X131729903Y-73262975D01*
X131488214Y-73311050D01*
X131241786Y-73311050D01*
X131000097Y-73262975D01*
X130772431Y-73168673D01*
X130772430Y-73168673D01*
X130772429Y-73168672D01*
X130567534Y-73031765D01*
X130393285Y-72857516D01*
X130256378Y-72652621D01*
X130162075Y-72424953D01*
X130114000Y-72183263D01*
X130114000Y-71936837D01*
X130162075Y-71695147D01*
X130256378Y-71467479D01*
X130393285Y-71262584D01*
X130567534Y-71088335D01*
X130772429Y-70951428D01*
X131000097Y-70857125D01*
X131241786Y-70809050D01*
X131488214Y-70809050D01*
X131729903Y-70857125D01*
G37*
G36*
X127616000Y-73311050D02*
G01*
X125114000Y-73311050D01*
X125114000Y-70809050D01*
X127616000Y-70809050D01*
X127616000Y-73311050D01*
G37*
G36*
X158731000Y-72371000D02*
G01*
X156229000Y-72371000D01*
X156229000Y-69869000D01*
X158731000Y-69869000D01*
X158731000Y-72371000D01*
G37*
G36*
X115814903Y-67047125D02*
G01*
X116042571Y-67141428D01*
X116247466Y-67278335D01*
X116421715Y-67452584D01*
X116558622Y-67657479D01*
X116652925Y-67885147D01*
X116701000Y-68126837D01*
X116701000Y-68373263D01*
X116652925Y-68614953D01*
X116558622Y-68842621D01*
X116421715Y-69047516D01*
X116247466Y-69221765D01*
X116042571Y-69358672D01*
X116042570Y-69358673D01*
X116042569Y-69358673D01*
X115814903Y-69452975D01*
X115573214Y-69501050D01*
X115326786Y-69501050D01*
X115085097Y-69452975D01*
X114857431Y-69358673D01*
X114857430Y-69358673D01*
X114857429Y-69358672D01*
X114652534Y-69221765D01*
X114478285Y-69047516D01*
X114341378Y-68842621D01*
X114247075Y-68614953D01*
X114199000Y-68373263D01*
X114199000Y-68126837D01*
X114247075Y-67885147D01*
X114341378Y-67657479D01*
X114478285Y-67452584D01*
X114652534Y-67278335D01*
X114857429Y-67141428D01*
X115085097Y-67047125D01*
X115326786Y-66999050D01*
X115573214Y-66999050D01*
X115814903Y-67047125D01*
G37*
G36*
X109201000Y-69501050D02*
G01*
X106699000Y-69501050D01*
X106699000Y-66999050D01*
X109201000Y-66999050D01*
X109201000Y-69501050D01*
G37*
G36*
X183321000Y-68681050D02*
G01*
X180719000Y-68681050D01*
X180719000Y-65279050D01*
X183321000Y-65279050D01*
X183321000Y-68681050D01*
G37*
G36*
X170621000Y-68681050D02*
G01*
X168019000Y-68681050D01*
X168019000Y-65279050D01*
X170621000Y-65279050D01*
X170621000Y-68681050D01*
G37*
G36*
X190121000Y-68681050D02*
G01*
X187519000Y-68681050D01*
X187519000Y-65279050D01*
X190121000Y-65279050D01*
X190121000Y-68681050D01*
G37*
G36*
X177421000Y-68681050D02*
G01*
X174819000Y-68681050D01*
X174819000Y-65279050D01*
X177421000Y-65279050D01*
X177421000Y-68681050D01*
G37*
G36*
X132881000Y-60081050D02*
G01*
X131279000Y-60081050D01*
X131279000Y-58679050D01*
X132881000Y-58679050D01*
X132881000Y-60081050D01*
G37*
G36*
X123981000Y-60081050D02*
G01*
X122379000Y-60081050D01*
X122379000Y-58679050D01*
X123981000Y-58679050D01*
X123981000Y-60081050D01*
G37*
G36*
X196035787Y-51585462D02*
G01*
X196035790Y-51585463D01*
X196035789Y-51585463D01*
X196682029Y-51853144D01*
X197263631Y-52241758D01*
X197758242Y-52736369D01*
X198146856Y-53317971D01*
X198146856Y-53317972D01*
X198414538Y-53964213D01*
X198551000Y-54650256D01*
X198551000Y-55349744D01*
X198414538Y-56035787D01*
X198336135Y-56225068D01*
X198146856Y-56682029D01*
X197758242Y-57263631D01*
X197263631Y-57758242D01*
X196682029Y-58146856D01*
X196225068Y-58336135D01*
X196035787Y-58414538D01*
X195349744Y-58551000D01*
X194650256Y-58551000D01*
X193964213Y-58414538D01*
X193774932Y-58336135D01*
X193317971Y-58146856D01*
X192736369Y-57758242D01*
X192241758Y-57263631D01*
X191853144Y-56682029D01*
X191663865Y-56225068D01*
X191585462Y-56035787D01*
X191449000Y-55349744D01*
X191449000Y-54650256D01*
X191585462Y-53964213D01*
X191853144Y-53317972D01*
X191853144Y-53317971D01*
X192241758Y-52736369D01*
X192736369Y-52241758D01*
X193317971Y-51853144D01*
X193964211Y-51585463D01*
X193964210Y-51585463D01*
X193964213Y-51585462D01*
X194650256Y-51449000D01*
X195349744Y-51449000D01*
X196035787Y-51585462D01*
G37*
G36*
X106035787Y-51585462D02*
G01*
X106035790Y-51585463D01*
X106035789Y-51585463D01*
X106682029Y-51853144D01*
X107263631Y-52241758D01*
X107758242Y-52736369D01*
X108146856Y-53317971D01*
X108146856Y-53317972D01*
X108414538Y-53964213D01*
X108551000Y-54650256D01*
X108551000Y-55349744D01*
X108414538Y-56035787D01*
X108336135Y-56225068D01*
X108146856Y-56682029D01*
X107758242Y-57263631D01*
X107263631Y-57758242D01*
X106682029Y-58146856D01*
X106225068Y-58336135D01*
X106035787Y-58414538D01*
X105349744Y-58551000D01*
X104650256Y-58551000D01*
X103964213Y-58414538D01*
X103774932Y-58336135D01*
X103317971Y-58146856D01*
X102736369Y-57758242D01*
X102241758Y-57263631D01*
X101853144Y-56682029D01*
X101663865Y-56225068D01*
X101585462Y-56035787D01*
X101449000Y-55349744D01*
X101449000Y-54650256D01*
X101585462Y-53964213D01*
X101853144Y-53317972D01*
X101853144Y-53317971D01*
X102241758Y-52736369D01*
X102736369Y-52241758D01*
X103317971Y-51853144D01*
X103964211Y-51585463D01*
X103964210Y-51585463D01*
X103964213Y-51585462D01*
X104650256Y-51449000D01*
X105349744Y-51449000D01*
X106035787Y-51585462D01*
G37*
G36*
X183321000Y-58521050D02*
G01*
X180719000Y-58521050D01*
X180719000Y-55119050D01*
X183321000Y-55119050D01*
X183321000Y-58521050D01*
G37*
G36*
X190121000Y-58521050D02*
G01*
X187519000Y-58521050D01*
X187519000Y-55119050D01*
X190121000Y-55119050D01*
X190121000Y-58521050D01*
G37*
G36*
X177421000Y-58521050D02*
G01*
X174819000Y-58521050D01*
X174819000Y-55119050D01*
X177421000Y-55119050D01*
X177421000Y-58521050D01*
G37*
G36*
X170621000Y-58521050D02*
G01*
X168019000Y-58521050D01*
X168019000Y-55119050D01*
X170621000Y-55119050D01*
X170621000Y-58521050D01*
G37*
G36*
X160395256Y-53814348D02*
G01*
X160501579Y-53835497D01*
X160802042Y-53959953D01*
X161072451Y-54140635D01*
X161302415Y-54370599D01*
X161483097Y-54641008D01*
X161607553Y-54941471D01*
X161671000Y-55260441D01*
X161671000Y-55585659D01*
X161607553Y-55904629D01*
X161483097Y-56205092D01*
X161302415Y-56475501D01*
X161072451Y-56705465D01*
X160802042Y-56886147D01*
X160501579Y-57010603D01*
X160395256Y-57031752D01*
X160182611Y-57074050D01*
X159857389Y-57074050D01*
X159644744Y-57031752D01*
X159538421Y-57010603D01*
X159237958Y-56886147D01*
X158967549Y-56705465D01*
X158737585Y-56475501D01*
X158556903Y-56205092D01*
X158432447Y-55904629D01*
X158369000Y-55585659D01*
X158369000Y-55260441D01*
X158432447Y-54941471D01*
X158556903Y-54641008D01*
X158737585Y-54370599D01*
X158967549Y-54140635D01*
X159237958Y-53959953D01*
X159538421Y-53835497D01*
X159644744Y-53814348D01*
X159857389Y-53772050D01*
X160182611Y-53772050D01*
X160395256Y-53814348D01*
G37*
G36*
X140329256Y-53814348D02*
G01*
X140435579Y-53835497D01*
X140736042Y-53959953D01*
X141006451Y-54140635D01*
X141236415Y-54370599D01*
X141417097Y-54641008D01*
X141541553Y-54941471D01*
X141605000Y-55260441D01*
X141605000Y-55585659D01*
X141541553Y-55904629D01*
X141417097Y-56205092D01*
X141236415Y-56475501D01*
X141006451Y-56705465D01*
X140736042Y-56886147D01*
X140435579Y-57010603D01*
X140329256Y-57031752D01*
X140116611Y-57074050D01*
X139791389Y-57074050D01*
X139578744Y-57031752D01*
X139472421Y-57010603D01*
X139171958Y-56886147D01*
X138901549Y-56705465D01*
X138671585Y-56475501D01*
X138490903Y-56205092D01*
X138366447Y-55904629D01*
X138303000Y-55585659D01*
X138303000Y-55260441D01*
X138366447Y-54941471D01*
X138490903Y-54641008D01*
X138671585Y-54370599D01*
X138901549Y-54140635D01*
X139171958Y-53959953D01*
X139472421Y-53835497D01*
X139578744Y-53814348D01*
X139791389Y-53772050D01*
X140116611Y-53772050D01*
X140329256Y-53814348D01*
G37*
G36*
X145409256Y-53814348D02*
G01*
X145515579Y-53835497D01*
X145816042Y-53959953D01*
X146086451Y-54140635D01*
X146316415Y-54370599D01*
X146497097Y-54641008D01*
X146621553Y-54941471D01*
X146685000Y-55260441D01*
X146685000Y-55585659D01*
X146621553Y-55904629D01*
X146497097Y-56205092D01*
X146316415Y-56475501D01*
X146086451Y-56705465D01*
X145816042Y-56886147D01*
X145515579Y-57010603D01*
X145409256Y-57031752D01*
X145196611Y-57074050D01*
X144871389Y-57074050D01*
X144658744Y-57031752D01*
X144552421Y-57010603D01*
X144251958Y-56886147D01*
X143981549Y-56705465D01*
X143751585Y-56475501D01*
X143570903Y-56205092D01*
X143446447Y-55904629D01*
X143383000Y-55585659D01*
X143383000Y-55260441D01*
X143446447Y-54941471D01*
X143570903Y-54641008D01*
X143751585Y-54370599D01*
X143981549Y-54140635D01*
X144251958Y-53959953D01*
X144552421Y-53835497D01*
X144658744Y-53814348D01*
X144871389Y-53772050D01*
X145196611Y-53772050D01*
X145409256Y-53814348D01*
G37*
G36*
X155315256Y-53814348D02*
G01*
X155421579Y-53835497D01*
X155722042Y-53959953D01*
X155992451Y-54140635D01*
X156222415Y-54370599D01*
X156403097Y-54641008D01*
X156527553Y-54941471D01*
X156591000Y-55260441D01*
X156591000Y-55585659D01*
X156527553Y-55904629D01*
X156403097Y-56205092D01*
X156222415Y-56475501D01*
X155992451Y-56705465D01*
X155722042Y-56886147D01*
X155421579Y-57010603D01*
X155315256Y-57031752D01*
X155102611Y-57074050D01*
X154777389Y-57074050D01*
X154564744Y-57031752D01*
X154458421Y-57010603D01*
X154157958Y-56886147D01*
X153887549Y-56705465D01*
X153657585Y-56475501D01*
X153476903Y-56205092D01*
X153352447Y-55904629D01*
X153289000Y-55585659D01*
X153289000Y-55260441D01*
X153352447Y-54941471D01*
X153476903Y-54641008D01*
X153657585Y-54370599D01*
X153887549Y-54140635D01*
X154157958Y-53959953D01*
X154458421Y-53835497D01*
X154564744Y-53814348D01*
X154777389Y-53772050D01*
X155102611Y-53772050D01*
X155315256Y-53814348D01*
G37*
G36*
X123981000Y-54981050D02*
G01*
X122379000Y-54981050D01*
X122379000Y-53579050D01*
X123981000Y-53579050D01*
X123981000Y-54981050D01*
G37*
G36*
X132881000Y-54981050D02*
G01*
X131279000Y-54981050D01*
X131279000Y-53579050D01*
X132881000Y-53579050D01*
X132881000Y-54981050D01*
G37*
M02*
