G04 #@! TF.GenerationSoftware,KiCad,Pcbnew,(5.1.5)-3*
G04 #@! TF.CreationDate,2020-04-21T19:46:43+02:00*
G04 #@! TF.ProjectId,PowerSupply_v2,506f7765-7253-4757-9070-6c795f76322e,rev?*
G04 #@! TF.SameCoordinates,Original*
G04 #@! TF.FileFunction,Copper,L2,Bot*
G04 #@! TF.FilePolarity,Positive*
%FSLAX46Y46*%
G04 Gerber Fmt 4.6, Leading zero omitted, Abs format (unit mm)*
G04 Created by KiCad (PCBNEW (5.1.5)-3) date 2020-04-21 19:46:43*
%MOMM*%
%LPD*%
G04 APERTURE LIST*
%ADD10C,7.000000*%
%ADD11C,2.400000*%
%ADD12R,2.400000X2.400000*%
%ADD13R,1.600000X1.600000*%
%ADD14C,1.600000*%
%ADD15R,2.000000X2.000000*%
%ADD16C,2.000000*%
%ADD17R,3.200000X3.200000*%
%ADD18O,3.200000X3.200000*%
%ADD19C,3.200000*%
%ADD20C,1.397000*%
%ADD21C,3.048000*%
%ADD22C,0.254000*%
G04 APERTURE END LIST*
D10*
X105000000Y-145000000D03*
X105000000Y-55000000D03*
X195000000Y-55000000D03*
X195000000Y-145000000D03*
D11*
X115450000Y-68250050D03*
D12*
X107950000Y-68250050D03*
X157480000Y-71120000D03*
D11*
X157480000Y-78620000D03*
X114220000Y-86030050D03*
D12*
X109220000Y-86030050D03*
D11*
X157500000Y-90000000D03*
D12*
X157500000Y-95000000D03*
D13*
X111760000Y-129540000D03*
D14*
X115260000Y-129540000D03*
D13*
X170180000Y-129540000D03*
D14*
X173680000Y-129540000D03*
D12*
X172500000Y-87500000D03*
D11*
X172500000Y-82500000D03*
D12*
X126365000Y-72060050D03*
D11*
X131365000Y-72060050D03*
D15*
X190000000Y-127000000D03*
D16*
X190000000Y-132000000D03*
D14*
X133040000Y-129540000D03*
D13*
X129540000Y-129540000D03*
D17*
X105410000Y-97155000D03*
D18*
X105410000Y-109855000D03*
D17*
X169545000Y-118110000D03*
D18*
X169545000Y-105410000D03*
X195200000Y-99695000D03*
D17*
X182500000Y-99695000D03*
D18*
X146685000Y-94615000D03*
D17*
X133985000Y-94615000D03*
D19*
X139954000Y-55423050D03*
X145034000Y-55423050D03*
X160020000Y-55423050D03*
X154940000Y-55423050D03*
X186690000Y-144577050D03*
X181610000Y-144577050D03*
X171450000Y-144577050D03*
X176530000Y-144577050D03*
X119380000Y-144577050D03*
X114300000Y-144577050D03*
X124460000Y-144577050D03*
X129540000Y-144577050D03*
D16*
X151638000Y-129540000D03*
X154940000Y-129540000D03*
D20*
X115450000Y-84800050D02*
X114220000Y-86030050D01*
X115450000Y-68250050D02*
X115450000Y-84800050D01*
X146685000Y-94615000D02*
X146685000Y-122809000D01*
X139954000Y-129540000D02*
X133040000Y-129540000D01*
X146685000Y-122809000D02*
X139954000Y-129540000D01*
X114220000Y-101045000D02*
X105410000Y-109855000D01*
X114220000Y-86030050D02*
X114220000Y-101045000D01*
D21*
X155325000Y-95000000D02*
X157500000Y-95000000D01*
X153035000Y-92710000D02*
X155325000Y-95000000D01*
X153035000Y-73660000D02*
X153035000Y-92710000D01*
X157480000Y-71120000D02*
X155575000Y-71120000D01*
X155575000Y-71120000D02*
X153035000Y-73660000D01*
D20*
X157500000Y-95000000D02*
X160224000Y-95000000D01*
X167724000Y-87500000D02*
X172500000Y-87500000D01*
X160224000Y-95000000D02*
X167724000Y-87500000D01*
X154940000Y-129540000D02*
X151638000Y-129540000D01*
X169545000Y-121107000D02*
X169545000Y-118110000D01*
X161112000Y-129540000D02*
X169545000Y-121107000D01*
X154940000Y-129540000D02*
X161112000Y-129540000D01*
D22*
G36*
X194970888Y-50660025D02*
G01*
X195768083Y-50731173D01*
X196511891Y-50934656D01*
X197207905Y-51266638D01*
X197834130Y-51716626D01*
X198370777Y-52270403D01*
X198800871Y-52910451D01*
X199110829Y-53616553D01*
X199292065Y-54371457D01*
X199340000Y-55024208D01*
X199340101Y-144969477D01*
X199268827Y-145768083D01*
X199065344Y-146511890D01*
X198733363Y-147207904D01*
X198283374Y-147834130D01*
X197729597Y-148370777D01*
X197089549Y-148800871D01*
X196383447Y-149110829D01*
X195628543Y-149292065D01*
X194975793Y-149340000D01*
X105029392Y-149340000D01*
X104231917Y-149268827D01*
X103488110Y-149065344D01*
X102792096Y-148733363D01*
X102165870Y-148283374D01*
X101629223Y-147729597D01*
X101199129Y-147089549D01*
X100889171Y-146383447D01*
X100707935Y-145628543D01*
X100660000Y-144975793D01*
X100660000Y-144592738D01*
X100865000Y-144592738D01*
X100865000Y-145407262D01*
X101023906Y-146206135D01*
X101335611Y-146958657D01*
X101788136Y-147635909D01*
X102364091Y-148211864D01*
X103041343Y-148664389D01*
X103793865Y-148976094D01*
X104592738Y-149135000D01*
X105407262Y-149135000D01*
X106206135Y-148976094D01*
X106958657Y-148664389D01*
X107635909Y-148211864D01*
X108211864Y-147635909D01*
X108664389Y-146958657D01*
X108976094Y-146206135D01*
X109135000Y-145407262D01*
X109135000Y-144592738D01*
X109088094Y-144356922D01*
X112065000Y-144356922D01*
X112065000Y-144797178D01*
X112150890Y-145228975D01*
X112319369Y-145635719D01*
X112563962Y-146001779D01*
X112875271Y-146313088D01*
X113241331Y-146557681D01*
X113648075Y-146726160D01*
X114079872Y-146812050D01*
X114520128Y-146812050D01*
X114951925Y-146726160D01*
X115358669Y-146557681D01*
X115724729Y-146313088D01*
X116036038Y-146001779D01*
X116280631Y-145635719D01*
X116449110Y-145228975D01*
X116535000Y-144797178D01*
X116535000Y-144356922D01*
X117145000Y-144356922D01*
X117145000Y-144797178D01*
X117230890Y-145228975D01*
X117399369Y-145635719D01*
X117643962Y-146001779D01*
X117955271Y-146313088D01*
X118321331Y-146557681D01*
X118728075Y-146726160D01*
X119159872Y-146812050D01*
X119600128Y-146812050D01*
X120031925Y-146726160D01*
X120438669Y-146557681D01*
X120804729Y-146313088D01*
X121116038Y-146001779D01*
X121360631Y-145635719D01*
X121529110Y-145228975D01*
X121615000Y-144797178D01*
X121615000Y-144356922D01*
X122225000Y-144356922D01*
X122225000Y-144797178D01*
X122310890Y-145228975D01*
X122479369Y-145635719D01*
X122723962Y-146001779D01*
X123035271Y-146313088D01*
X123401331Y-146557681D01*
X123808075Y-146726160D01*
X124239872Y-146812050D01*
X124680128Y-146812050D01*
X125111925Y-146726160D01*
X125518669Y-146557681D01*
X125884729Y-146313088D01*
X126196038Y-146001779D01*
X126440631Y-145635719D01*
X126609110Y-145228975D01*
X126695000Y-144797178D01*
X126695000Y-144356922D01*
X127305000Y-144356922D01*
X127305000Y-144797178D01*
X127390890Y-145228975D01*
X127559369Y-145635719D01*
X127803962Y-146001779D01*
X128115271Y-146313088D01*
X128481331Y-146557681D01*
X128888075Y-146726160D01*
X129319872Y-146812050D01*
X129760128Y-146812050D01*
X130191925Y-146726160D01*
X130598669Y-146557681D01*
X130964729Y-146313088D01*
X131276038Y-146001779D01*
X131520631Y-145635719D01*
X131689110Y-145228975D01*
X131775000Y-144797178D01*
X131775000Y-144356922D01*
X169215000Y-144356922D01*
X169215000Y-144797178D01*
X169300890Y-145228975D01*
X169469369Y-145635719D01*
X169713962Y-146001779D01*
X170025271Y-146313088D01*
X170391331Y-146557681D01*
X170798075Y-146726160D01*
X171229872Y-146812050D01*
X171670128Y-146812050D01*
X172101925Y-146726160D01*
X172508669Y-146557681D01*
X172874729Y-146313088D01*
X173186038Y-146001779D01*
X173430631Y-145635719D01*
X173599110Y-145228975D01*
X173685000Y-144797178D01*
X173685000Y-144356922D01*
X174295000Y-144356922D01*
X174295000Y-144797178D01*
X174380890Y-145228975D01*
X174549369Y-145635719D01*
X174793962Y-146001779D01*
X175105271Y-146313088D01*
X175471331Y-146557681D01*
X175878075Y-146726160D01*
X176309872Y-146812050D01*
X176750128Y-146812050D01*
X177181925Y-146726160D01*
X177588669Y-146557681D01*
X177954729Y-146313088D01*
X178266038Y-146001779D01*
X178510631Y-145635719D01*
X178679110Y-145228975D01*
X178765000Y-144797178D01*
X178765000Y-144356922D01*
X179375000Y-144356922D01*
X179375000Y-144797178D01*
X179460890Y-145228975D01*
X179629369Y-145635719D01*
X179873962Y-146001779D01*
X180185271Y-146313088D01*
X180551331Y-146557681D01*
X180958075Y-146726160D01*
X181389872Y-146812050D01*
X181830128Y-146812050D01*
X182261925Y-146726160D01*
X182668669Y-146557681D01*
X183034729Y-146313088D01*
X183346038Y-146001779D01*
X183590631Y-145635719D01*
X183759110Y-145228975D01*
X183845000Y-144797178D01*
X183845000Y-144356922D01*
X184455000Y-144356922D01*
X184455000Y-144797178D01*
X184540890Y-145228975D01*
X184709369Y-145635719D01*
X184953962Y-146001779D01*
X185265271Y-146313088D01*
X185631331Y-146557681D01*
X186038075Y-146726160D01*
X186469872Y-146812050D01*
X186910128Y-146812050D01*
X187341925Y-146726160D01*
X187748669Y-146557681D01*
X188114729Y-146313088D01*
X188426038Y-146001779D01*
X188670631Y-145635719D01*
X188839110Y-145228975D01*
X188925000Y-144797178D01*
X188925000Y-144592738D01*
X190865000Y-144592738D01*
X190865000Y-145407262D01*
X191023906Y-146206135D01*
X191335611Y-146958657D01*
X191788136Y-147635909D01*
X192364091Y-148211864D01*
X193041343Y-148664389D01*
X193793865Y-148976094D01*
X194592738Y-149135000D01*
X195407262Y-149135000D01*
X196206135Y-148976094D01*
X196958657Y-148664389D01*
X197635909Y-148211864D01*
X198211864Y-147635909D01*
X198664389Y-146958657D01*
X198976094Y-146206135D01*
X199135000Y-145407262D01*
X199135000Y-144592738D01*
X198976094Y-143793865D01*
X198664389Y-143041343D01*
X198211864Y-142364091D01*
X197635909Y-141788136D01*
X196958657Y-141335611D01*
X196206135Y-141023906D01*
X195407262Y-140865000D01*
X194592738Y-140865000D01*
X193793865Y-141023906D01*
X193041343Y-141335611D01*
X192364091Y-141788136D01*
X191788136Y-142364091D01*
X191335611Y-143041343D01*
X191023906Y-143793865D01*
X190865000Y-144592738D01*
X188925000Y-144592738D01*
X188925000Y-144356922D01*
X188839110Y-143925125D01*
X188670631Y-143518381D01*
X188426038Y-143152321D01*
X188114729Y-142841012D01*
X187748669Y-142596419D01*
X187341925Y-142427940D01*
X186910128Y-142342050D01*
X186469872Y-142342050D01*
X186038075Y-142427940D01*
X185631331Y-142596419D01*
X185265271Y-142841012D01*
X184953962Y-143152321D01*
X184709369Y-143518381D01*
X184540890Y-143925125D01*
X184455000Y-144356922D01*
X183845000Y-144356922D01*
X183759110Y-143925125D01*
X183590631Y-143518381D01*
X183346038Y-143152321D01*
X183034729Y-142841012D01*
X182668669Y-142596419D01*
X182261925Y-142427940D01*
X181830128Y-142342050D01*
X181389872Y-142342050D01*
X180958075Y-142427940D01*
X180551331Y-142596419D01*
X180185271Y-142841012D01*
X179873962Y-143152321D01*
X179629369Y-143518381D01*
X179460890Y-143925125D01*
X179375000Y-144356922D01*
X178765000Y-144356922D01*
X178679110Y-143925125D01*
X178510631Y-143518381D01*
X178266038Y-143152321D01*
X177954729Y-142841012D01*
X177588669Y-142596419D01*
X177181925Y-142427940D01*
X176750128Y-142342050D01*
X176309872Y-142342050D01*
X175878075Y-142427940D01*
X175471331Y-142596419D01*
X175105271Y-142841012D01*
X174793962Y-143152321D01*
X174549369Y-143518381D01*
X174380890Y-143925125D01*
X174295000Y-144356922D01*
X173685000Y-144356922D01*
X173599110Y-143925125D01*
X173430631Y-143518381D01*
X173186038Y-143152321D01*
X172874729Y-142841012D01*
X172508669Y-142596419D01*
X172101925Y-142427940D01*
X171670128Y-142342050D01*
X171229872Y-142342050D01*
X170798075Y-142427940D01*
X170391331Y-142596419D01*
X170025271Y-142841012D01*
X169713962Y-143152321D01*
X169469369Y-143518381D01*
X169300890Y-143925125D01*
X169215000Y-144356922D01*
X131775000Y-144356922D01*
X131689110Y-143925125D01*
X131520631Y-143518381D01*
X131276038Y-143152321D01*
X130964729Y-142841012D01*
X130598669Y-142596419D01*
X130191925Y-142427940D01*
X129760128Y-142342050D01*
X129319872Y-142342050D01*
X128888075Y-142427940D01*
X128481331Y-142596419D01*
X128115271Y-142841012D01*
X127803962Y-143152321D01*
X127559369Y-143518381D01*
X127390890Y-143925125D01*
X127305000Y-144356922D01*
X126695000Y-144356922D01*
X126609110Y-143925125D01*
X126440631Y-143518381D01*
X126196038Y-143152321D01*
X125884729Y-142841012D01*
X125518669Y-142596419D01*
X125111925Y-142427940D01*
X124680128Y-142342050D01*
X124239872Y-142342050D01*
X123808075Y-142427940D01*
X123401331Y-142596419D01*
X123035271Y-142841012D01*
X122723962Y-143152321D01*
X122479369Y-143518381D01*
X122310890Y-143925125D01*
X122225000Y-144356922D01*
X121615000Y-144356922D01*
X121529110Y-143925125D01*
X121360631Y-143518381D01*
X121116038Y-143152321D01*
X120804729Y-142841012D01*
X120438669Y-142596419D01*
X120031925Y-142427940D01*
X119600128Y-142342050D01*
X119159872Y-142342050D01*
X118728075Y-142427940D01*
X118321331Y-142596419D01*
X117955271Y-142841012D01*
X117643962Y-143152321D01*
X117399369Y-143518381D01*
X117230890Y-143925125D01*
X117145000Y-144356922D01*
X116535000Y-144356922D01*
X116449110Y-143925125D01*
X116280631Y-143518381D01*
X116036038Y-143152321D01*
X115724729Y-142841012D01*
X115358669Y-142596419D01*
X114951925Y-142427940D01*
X114520128Y-142342050D01*
X114079872Y-142342050D01*
X113648075Y-142427940D01*
X113241331Y-142596419D01*
X112875271Y-142841012D01*
X112563962Y-143152321D01*
X112319369Y-143518381D01*
X112150890Y-143925125D01*
X112065000Y-144356922D01*
X109088094Y-144356922D01*
X108976094Y-143793865D01*
X108664389Y-143041343D01*
X108211864Y-142364091D01*
X107635909Y-141788136D01*
X106958657Y-141335611D01*
X106206135Y-141023906D01*
X105407262Y-140865000D01*
X104592738Y-140865000D01*
X103793865Y-141023906D01*
X103041343Y-141335611D01*
X102364091Y-141788136D01*
X101788136Y-142364091D01*
X101335611Y-143041343D01*
X101023906Y-143793865D01*
X100865000Y-144592738D01*
X100660000Y-144592738D01*
X100660000Y-131838967D01*
X188365000Y-131838967D01*
X188365000Y-132161033D01*
X188427832Y-132476912D01*
X188551082Y-132774463D01*
X188730013Y-133042252D01*
X188957748Y-133269987D01*
X189225537Y-133448918D01*
X189523088Y-133572168D01*
X189838967Y-133635000D01*
X190161033Y-133635000D01*
X190476912Y-133572168D01*
X190774463Y-133448918D01*
X191042252Y-133269987D01*
X191269987Y-133042252D01*
X191448918Y-132774463D01*
X191572168Y-132476912D01*
X191635000Y-132161033D01*
X191635000Y-131838967D01*
X191572168Y-131523088D01*
X191448918Y-131225537D01*
X191269987Y-130957748D01*
X191042252Y-130730013D01*
X190774463Y-130551082D01*
X190476912Y-130427832D01*
X190161033Y-130365000D01*
X189838967Y-130365000D01*
X189523088Y-130427832D01*
X189225537Y-130551082D01*
X188957748Y-130730013D01*
X188730013Y-130957748D01*
X188551082Y-131225537D01*
X188427832Y-131523088D01*
X188365000Y-131838967D01*
X100660000Y-131838967D01*
X100660000Y-128740000D01*
X110321928Y-128740000D01*
X110321928Y-130340000D01*
X110334188Y-130464482D01*
X110370498Y-130584180D01*
X110429463Y-130694494D01*
X110508815Y-130791185D01*
X110605506Y-130870537D01*
X110715820Y-130929502D01*
X110835518Y-130965812D01*
X110960000Y-130978072D01*
X112560000Y-130978072D01*
X112684482Y-130965812D01*
X112804180Y-130929502D01*
X112914494Y-130870537D01*
X113011185Y-130791185D01*
X113090537Y-130694494D01*
X113149502Y-130584180D01*
X113185812Y-130464482D01*
X113198072Y-130340000D01*
X113198072Y-129398665D01*
X113825000Y-129398665D01*
X113825000Y-129681335D01*
X113880147Y-129958574D01*
X113988320Y-130219727D01*
X114145363Y-130454759D01*
X114345241Y-130654637D01*
X114580273Y-130811680D01*
X114841426Y-130919853D01*
X115118665Y-130975000D01*
X115401335Y-130975000D01*
X115678574Y-130919853D01*
X115939727Y-130811680D01*
X116174759Y-130654637D01*
X116374637Y-130454759D01*
X116531680Y-130219727D01*
X116639853Y-129958574D01*
X116695000Y-129681335D01*
X116695000Y-129398665D01*
X116639853Y-129121426D01*
X116531680Y-128860273D01*
X116451317Y-128740000D01*
X128101928Y-128740000D01*
X128101928Y-130340000D01*
X128114188Y-130464482D01*
X128150498Y-130584180D01*
X128209463Y-130694494D01*
X128288815Y-130791185D01*
X128385506Y-130870537D01*
X128495820Y-130929502D01*
X128615518Y-130965812D01*
X128740000Y-130978072D01*
X130340000Y-130978072D01*
X130464482Y-130965812D01*
X130584180Y-130929502D01*
X130694494Y-130870537D01*
X130791185Y-130791185D01*
X130870537Y-130694494D01*
X130929502Y-130584180D01*
X130965812Y-130464482D01*
X130978072Y-130340000D01*
X130978072Y-129398665D01*
X131605000Y-129398665D01*
X131605000Y-129681335D01*
X131660147Y-129958574D01*
X131768320Y-130219727D01*
X131925363Y-130454759D01*
X132125241Y-130654637D01*
X132360273Y-130811680D01*
X132621426Y-130919853D01*
X132898665Y-130975000D01*
X133181335Y-130975000D01*
X133458574Y-130919853D01*
X133570480Y-130873500D01*
X139888503Y-130873500D01*
X139954000Y-130879951D01*
X140019497Y-130873500D01*
X140019508Y-130873500D01*
X140215412Y-130854205D01*
X140466777Y-130777954D01*
X140698437Y-130654129D01*
X140901489Y-130487489D01*
X140943250Y-130436603D01*
X142000886Y-129378967D01*
X150003000Y-129378967D01*
X150003000Y-129701033D01*
X150065832Y-130016912D01*
X150189082Y-130314463D01*
X150368013Y-130582252D01*
X150595748Y-130809987D01*
X150863537Y-130988918D01*
X151161088Y-131112168D01*
X151476967Y-131175000D01*
X151799033Y-131175000D01*
X152114912Y-131112168D01*
X152412463Y-130988918D01*
X152585198Y-130873500D01*
X153992802Y-130873500D01*
X154165537Y-130988918D01*
X154463088Y-131112168D01*
X154778967Y-131175000D01*
X155101033Y-131175000D01*
X155416912Y-131112168D01*
X155714463Y-130988918D01*
X155887198Y-130873500D01*
X161046503Y-130873500D01*
X161112000Y-130879951D01*
X161177497Y-130873500D01*
X161177508Y-130873500D01*
X161373412Y-130854205D01*
X161624777Y-130777954D01*
X161856437Y-130654129D01*
X162059489Y-130487489D01*
X162101250Y-130436603D01*
X163797853Y-128740000D01*
X168741928Y-128740000D01*
X168741928Y-130340000D01*
X168754188Y-130464482D01*
X168790498Y-130584180D01*
X168849463Y-130694494D01*
X168928815Y-130791185D01*
X169025506Y-130870537D01*
X169135820Y-130929502D01*
X169255518Y-130965812D01*
X169380000Y-130978072D01*
X170980000Y-130978072D01*
X171104482Y-130965812D01*
X171224180Y-130929502D01*
X171334494Y-130870537D01*
X171431185Y-130791185D01*
X171510537Y-130694494D01*
X171569502Y-130584180D01*
X171605812Y-130464482D01*
X171618072Y-130340000D01*
X171618072Y-129398665D01*
X172245000Y-129398665D01*
X172245000Y-129681335D01*
X172300147Y-129958574D01*
X172408320Y-130219727D01*
X172565363Y-130454759D01*
X172765241Y-130654637D01*
X173000273Y-130811680D01*
X173261426Y-130919853D01*
X173538665Y-130975000D01*
X173821335Y-130975000D01*
X174098574Y-130919853D01*
X174359727Y-130811680D01*
X174594759Y-130654637D01*
X174794637Y-130454759D01*
X174951680Y-130219727D01*
X175059853Y-129958574D01*
X175115000Y-129681335D01*
X175115000Y-129398665D01*
X175059853Y-129121426D01*
X174951680Y-128860273D01*
X174794637Y-128625241D01*
X174594759Y-128425363D01*
X174359727Y-128268320D01*
X174098574Y-128160147D01*
X173821335Y-128105000D01*
X173538665Y-128105000D01*
X173261426Y-128160147D01*
X173000273Y-128268320D01*
X172765241Y-128425363D01*
X172565363Y-128625241D01*
X172408320Y-128860273D01*
X172300147Y-129121426D01*
X172245000Y-129398665D01*
X171618072Y-129398665D01*
X171618072Y-128740000D01*
X171605812Y-128615518D01*
X171569502Y-128495820D01*
X171510537Y-128385506D01*
X171431185Y-128288815D01*
X171334494Y-128209463D01*
X171224180Y-128150498D01*
X171104482Y-128114188D01*
X170980000Y-128101928D01*
X169380000Y-128101928D01*
X169255518Y-128114188D01*
X169135820Y-128150498D01*
X169025506Y-128209463D01*
X168928815Y-128288815D01*
X168849463Y-128385506D01*
X168790498Y-128495820D01*
X168754188Y-128615518D01*
X168741928Y-128740000D01*
X163797853Y-128740000D01*
X166537853Y-126000000D01*
X188361928Y-126000000D01*
X188361928Y-128000000D01*
X188374188Y-128124482D01*
X188410498Y-128244180D01*
X188469463Y-128354494D01*
X188548815Y-128451185D01*
X188645506Y-128530537D01*
X188755820Y-128589502D01*
X188875518Y-128625812D01*
X189000000Y-128638072D01*
X191000000Y-128638072D01*
X191124482Y-128625812D01*
X191244180Y-128589502D01*
X191354494Y-128530537D01*
X191451185Y-128451185D01*
X191530537Y-128354494D01*
X191589502Y-128244180D01*
X191625812Y-128124482D01*
X191638072Y-128000000D01*
X191638072Y-126000000D01*
X191625812Y-125875518D01*
X191589502Y-125755820D01*
X191530537Y-125645506D01*
X191451185Y-125548815D01*
X191354494Y-125469463D01*
X191244180Y-125410498D01*
X191124482Y-125374188D01*
X191000000Y-125361928D01*
X189000000Y-125361928D01*
X188875518Y-125374188D01*
X188755820Y-125410498D01*
X188645506Y-125469463D01*
X188548815Y-125548815D01*
X188469463Y-125645506D01*
X188410498Y-125755820D01*
X188374188Y-125875518D01*
X188361928Y-126000000D01*
X166537853Y-126000000D01*
X170441610Y-122096244D01*
X170492489Y-122054489D01*
X170534245Y-122003609D01*
X170534248Y-122003606D01*
X170659129Y-121851438D01*
X170782953Y-121619778D01*
X170782954Y-121619777D01*
X170859205Y-121368412D01*
X170878500Y-121172508D01*
X170878500Y-121172498D01*
X170884951Y-121107000D01*
X170878500Y-121041503D01*
X170878500Y-120348072D01*
X171145000Y-120348072D01*
X171269482Y-120335812D01*
X171389180Y-120299502D01*
X171499494Y-120240537D01*
X171596185Y-120161185D01*
X171675537Y-120064494D01*
X171734502Y-119954180D01*
X171770812Y-119834482D01*
X171783072Y-119710000D01*
X171783072Y-116510000D01*
X171770812Y-116385518D01*
X171734502Y-116265820D01*
X171675537Y-116155506D01*
X171596185Y-116058815D01*
X171499494Y-115979463D01*
X171389180Y-115920498D01*
X171269482Y-115884188D01*
X171145000Y-115871928D01*
X167945000Y-115871928D01*
X167820518Y-115884188D01*
X167700820Y-115920498D01*
X167590506Y-115979463D01*
X167493815Y-116058815D01*
X167414463Y-116155506D01*
X167355498Y-116265820D01*
X167319188Y-116385518D01*
X167306928Y-116510000D01*
X167306928Y-119710000D01*
X167319188Y-119834482D01*
X167355498Y-119954180D01*
X167414463Y-120064494D01*
X167493815Y-120161185D01*
X167590506Y-120240537D01*
X167700820Y-120299502D01*
X167820518Y-120335812D01*
X167945000Y-120348072D01*
X168211500Y-120348072D01*
X168211500Y-120554646D01*
X160559647Y-128206500D01*
X155887198Y-128206500D01*
X155714463Y-128091082D01*
X155416912Y-127967832D01*
X155101033Y-127905000D01*
X154778967Y-127905000D01*
X154463088Y-127967832D01*
X154165537Y-128091082D01*
X153992802Y-128206500D01*
X152585198Y-128206500D01*
X152412463Y-128091082D01*
X152114912Y-127967832D01*
X151799033Y-127905000D01*
X151476967Y-127905000D01*
X151161088Y-127967832D01*
X150863537Y-128091082D01*
X150595748Y-128270013D01*
X150368013Y-128497748D01*
X150189082Y-128765537D01*
X150065832Y-129063088D01*
X150003000Y-129378967D01*
X142000886Y-129378967D01*
X147581609Y-123798245D01*
X147632489Y-123756489D01*
X147674247Y-123705607D01*
X147799129Y-123553438D01*
X147922953Y-123321778D01*
X147922954Y-123321777D01*
X147999205Y-123070412D01*
X148018500Y-122874508D01*
X148018500Y-122874499D01*
X148024951Y-122809001D01*
X148018500Y-122743503D01*
X148018500Y-105189872D01*
X167310000Y-105189872D01*
X167310000Y-105630128D01*
X167395890Y-106061925D01*
X167564369Y-106468669D01*
X167808962Y-106834729D01*
X168120271Y-107146038D01*
X168486331Y-107390631D01*
X168893075Y-107559110D01*
X169324872Y-107645000D01*
X169765128Y-107645000D01*
X170196925Y-107559110D01*
X170603669Y-107390631D01*
X170969729Y-107146038D01*
X171281038Y-106834729D01*
X171525631Y-106468669D01*
X171694110Y-106061925D01*
X171780000Y-105630128D01*
X171780000Y-105189872D01*
X171694110Y-104758075D01*
X171525631Y-104351331D01*
X171281038Y-103985271D01*
X170969729Y-103673962D01*
X170603669Y-103429369D01*
X170196925Y-103260890D01*
X169765128Y-103175000D01*
X169324872Y-103175000D01*
X168893075Y-103260890D01*
X168486331Y-103429369D01*
X168120271Y-103673962D01*
X167808962Y-103985271D01*
X167564369Y-104351331D01*
X167395890Y-104758075D01*
X167310000Y-105189872D01*
X148018500Y-105189872D01*
X148018500Y-98095000D01*
X180261928Y-98095000D01*
X180261928Y-101295000D01*
X180274188Y-101419482D01*
X180310498Y-101539180D01*
X180369463Y-101649494D01*
X180448815Y-101746185D01*
X180545506Y-101825537D01*
X180655820Y-101884502D01*
X180775518Y-101920812D01*
X180900000Y-101933072D01*
X184100000Y-101933072D01*
X184224482Y-101920812D01*
X184344180Y-101884502D01*
X184454494Y-101825537D01*
X184551185Y-101746185D01*
X184630537Y-101649494D01*
X184689502Y-101539180D01*
X184725812Y-101419482D01*
X184738072Y-101295000D01*
X184738072Y-99474872D01*
X192965000Y-99474872D01*
X192965000Y-99915128D01*
X193050890Y-100346925D01*
X193219369Y-100753669D01*
X193463962Y-101119729D01*
X193775271Y-101431038D01*
X194141331Y-101675631D01*
X194548075Y-101844110D01*
X194979872Y-101930000D01*
X195420128Y-101930000D01*
X195851925Y-101844110D01*
X196258669Y-101675631D01*
X196624729Y-101431038D01*
X196936038Y-101119729D01*
X197180631Y-100753669D01*
X197349110Y-100346925D01*
X197435000Y-99915128D01*
X197435000Y-99474872D01*
X197349110Y-99043075D01*
X197180631Y-98636331D01*
X196936038Y-98270271D01*
X196624729Y-97958962D01*
X196258669Y-97714369D01*
X195851925Y-97545890D01*
X195420128Y-97460000D01*
X194979872Y-97460000D01*
X194548075Y-97545890D01*
X194141331Y-97714369D01*
X193775271Y-97958962D01*
X193463962Y-98270271D01*
X193219369Y-98636331D01*
X193050890Y-99043075D01*
X192965000Y-99474872D01*
X184738072Y-99474872D01*
X184738072Y-98095000D01*
X184725812Y-97970518D01*
X184689502Y-97850820D01*
X184630537Y-97740506D01*
X184551185Y-97643815D01*
X184454494Y-97564463D01*
X184344180Y-97505498D01*
X184224482Y-97469188D01*
X184100000Y-97456928D01*
X180900000Y-97456928D01*
X180775518Y-97469188D01*
X180655820Y-97505498D01*
X180545506Y-97564463D01*
X180448815Y-97643815D01*
X180369463Y-97740506D01*
X180310498Y-97850820D01*
X180274188Y-97970518D01*
X180261928Y-98095000D01*
X148018500Y-98095000D01*
X148018500Y-96411995D01*
X148109729Y-96351038D01*
X148421038Y-96039729D01*
X148665631Y-95673669D01*
X148834110Y-95266925D01*
X148920000Y-94835128D01*
X148920000Y-94394872D01*
X148834110Y-93963075D01*
X148665631Y-93556331D01*
X148421038Y-93190271D01*
X148109729Y-92878962D01*
X147743669Y-92634369D01*
X147336925Y-92465890D01*
X146905128Y-92380000D01*
X146464872Y-92380000D01*
X146033075Y-92465890D01*
X145626331Y-92634369D01*
X145260271Y-92878962D01*
X144948962Y-93190271D01*
X144704369Y-93556331D01*
X144535890Y-93963075D01*
X144450000Y-94394872D01*
X144450000Y-94835128D01*
X144535890Y-95266925D01*
X144704369Y-95673669D01*
X144948962Y-96039729D01*
X145260271Y-96351038D01*
X145351500Y-96411995D01*
X145351501Y-122256645D01*
X139401647Y-128206500D01*
X133570480Y-128206500D01*
X133458574Y-128160147D01*
X133181335Y-128105000D01*
X132898665Y-128105000D01*
X132621426Y-128160147D01*
X132360273Y-128268320D01*
X132125241Y-128425363D01*
X131925363Y-128625241D01*
X131768320Y-128860273D01*
X131660147Y-129121426D01*
X131605000Y-129398665D01*
X130978072Y-129398665D01*
X130978072Y-128740000D01*
X130965812Y-128615518D01*
X130929502Y-128495820D01*
X130870537Y-128385506D01*
X130791185Y-128288815D01*
X130694494Y-128209463D01*
X130584180Y-128150498D01*
X130464482Y-128114188D01*
X130340000Y-128101928D01*
X128740000Y-128101928D01*
X128615518Y-128114188D01*
X128495820Y-128150498D01*
X128385506Y-128209463D01*
X128288815Y-128288815D01*
X128209463Y-128385506D01*
X128150498Y-128495820D01*
X128114188Y-128615518D01*
X128101928Y-128740000D01*
X116451317Y-128740000D01*
X116374637Y-128625241D01*
X116174759Y-128425363D01*
X115939727Y-128268320D01*
X115678574Y-128160147D01*
X115401335Y-128105000D01*
X115118665Y-128105000D01*
X114841426Y-128160147D01*
X114580273Y-128268320D01*
X114345241Y-128425363D01*
X114145363Y-128625241D01*
X113988320Y-128860273D01*
X113880147Y-129121426D01*
X113825000Y-129398665D01*
X113198072Y-129398665D01*
X113198072Y-128740000D01*
X113185812Y-128615518D01*
X113149502Y-128495820D01*
X113090537Y-128385506D01*
X113011185Y-128288815D01*
X112914494Y-128209463D01*
X112804180Y-128150498D01*
X112684482Y-128114188D01*
X112560000Y-128101928D01*
X110960000Y-128101928D01*
X110835518Y-128114188D01*
X110715820Y-128150498D01*
X110605506Y-128209463D01*
X110508815Y-128288815D01*
X110429463Y-128385506D01*
X110370498Y-128495820D01*
X110334188Y-128615518D01*
X110321928Y-128740000D01*
X100660000Y-128740000D01*
X100660000Y-109634872D01*
X103175000Y-109634872D01*
X103175000Y-110075128D01*
X103260890Y-110506925D01*
X103429369Y-110913669D01*
X103673962Y-111279729D01*
X103985271Y-111591038D01*
X104351331Y-111835631D01*
X104758075Y-112004110D01*
X105189872Y-112090000D01*
X105630128Y-112090000D01*
X106061925Y-112004110D01*
X106468669Y-111835631D01*
X106834729Y-111591038D01*
X107146038Y-111279729D01*
X107390631Y-110913669D01*
X107559110Y-110506925D01*
X107645000Y-110075128D01*
X107645000Y-109634872D01*
X107623594Y-109527259D01*
X115116609Y-102034245D01*
X115167489Y-101992489D01*
X115209247Y-101941607D01*
X115334129Y-101789438D01*
X115457953Y-101557778D01*
X115457954Y-101557777D01*
X115534205Y-101306412D01*
X115553500Y-101110508D01*
X115553500Y-101110499D01*
X115559951Y-101045001D01*
X115553500Y-100979503D01*
X115553500Y-93015000D01*
X131746928Y-93015000D01*
X131746928Y-96215000D01*
X131759188Y-96339482D01*
X131795498Y-96459180D01*
X131854463Y-96569494D01*
X131933815Y-96666185D01*
X132030506Y-96745537D01*
X132140820Y-96804502D01*
X132260518Y-96840812D01*
X132385000Y-96853072D01*
X135585000Y-96853072D01*
X135709482Y-96840812D01*
X135829180Y-96804502D01*
X135939494Y-96745537D01*
X136036185Y-96666185D01*
X136115537Y-96569494D01*
X136174502Y-96459180D01*
X136210812Y-96339482D01*
X136223072Y-96215000D01*
X136223072Y-93015000D01*
X136210812Y-92890518D01*
X136174502Y-92770820D01*
X136115537Y-92660506D01*
X136036185Y-92563815D01*
X135939494Y-92484463D01*
X135829180Y-92425498D01*
X135709482Y-92389188D01*
X135585000Y-92376928D01*
X132385000Y-92376928D01*
X132260518Y-92389188D01*
X132140820Y-92425498D01*
X132030506Y-92484463D01*
X131933815Y-92563815D01*
X131854463Y-92660506D01*
X131795498Y-92770820D01*
X131759188Y-92890518D01*
X131746928Y-93015000D01*
X115553500Y-93015000D01*
X115553500Y-87291632D01*
X115645338Y-87199794D01*
X115846156Y-86899249D01*
X115984482Y-86565300D01*
X116055000Y-86210782D01*
X116055000Y-86080904D01*
X116346609Y-85789295D01*
X116397489Y-85747539D01*
X116439245Y-85696659D01*
X116439248Y-85696656D01*
X116564129Y-85544487D01*
X116687953Y-85312828D01*
X116687954Y-85312827D01*
X116764205Y-85061462D01*
X116783500Y-84865558D01*
X116783500Y-84865555D01*
X116789952Y-84800050D01*
X116783500Y-84734545D01*
X116783500Y-70860050D01*
X124526928Y-70860050D01*
X124526928Y-73260050D01*
X124539188Y-73384532D01*
X124575498Y-73504230D01*
X124634463Y-73614544D01*
X124713815Y-73711235D01*
X124810506Y-73790587D01*
X124920820Y-73849552D01*
X125040518Y-73885862D01*
X125165000Y-73898122D01*
X127565000Y-73898122D01*
X127689482Y-73885862D01*
X127809180Y-73849552D01*
X127919494Y-73790587D01*
X128016185Y-73711235D01*
X128095537Y-73614544D01*
X128154502Y-73504230D01*
X128190812Y-73384532D01*
X128203072Y-73260050D01*
X128203072Y-71879318D01*
X129530000Y-71879318D01*
X129530000Y-72240782D01*
X129600518Y-72595300D01*
X129738844Y-72929249D01*
X129939662Y-73229794D01*
X130195256Y-73485388D01*
X130495801Y-73686206D01*
X130829750Y-73824532D01*
X131184268Y-73895050D01*
X131545732Y-73895050D01*
X131900250Y-73824532D01*
X132234199Y-73686206D01*
X132273419Y-73660000D01*
X150865554Y-73660000D01*
X150876000Y-73766058D01*
X150876001Y-92603932D01*
X150865554Y-92710000D01*
X150903407Y-93094325D01*
X150907240Y-93133238D01*
X151001966Y-93445506D01*
X151030694Y-93540211D01*
X151231172Y-93915279D01*
X151384593Y-94102223D01*
X151500971Y-94244030D01*
X151583353Y-94311639D01*
X153723360Y-96451647D01*
X153790970Y-96534030D01*
X154119720Y-96803828D01*
X154494789Y-97004307D01*
X154901762Y-97127761D01*
X155218939Y-97159000D01*
X155218949Y-97159000D01*
X155324999Y-97169445D01*
X155431050Y-97159000D01*
X157606061Y-97159000D01*
X157923238Y-97127761D01*
X158330211Y-97004307D01*
X158641214Y-96838072D01*
X158700000Y-96838072D01*
X158824482Y-96825812D01*
X158944180Y-96789502D01*
X159054494Y-96730537D01*
X159151185Y-96651185D01*
X159230537Y-96554494D01*
X159289502Y-96444180D01*
X159323076Y-96333500D01*
X160158503Y-96333500D01*
X160224000Y-96339951D01*
X160289497Y-96333500D01*
X160289508Y-96333500D01*
X160485412Y-96314205D01*
X160736777Y-96237954D01*
X160968437Y-96114129D01*
X161171489Y-95947489D01*
X161213250Y-95896603D01*
X168276354Y-88833500D01*
X170676924Y-88833500D01*
X170710498Y-88944180D01*
X170769463Y-89054494D01*
X170848815Y-89151185D01*
X170945506Y-89230537D01*
X171055820Y-89289502D01*
X171175518Y-89325812D01*
X171300000Y-89338072D01*
X173700000Y-89338072D01*
X173824482Y-89325812D01*
X173944180Y-89289502D01*
X174054494Y-89230537D01*
X174151185Y-89151185D01*
X174230537Y-89054494D01*
X174289502Y-88944180D01*
X174325812Y-88824482D01*
X174338072Y-88700000D01*
X174338072Y-86300000D01*
X174325812Y-86175518D01*
X174289502Y-86055820D01*
X174230537Y-85945506D01*
X174151185Y-85848815D01*
X174054494Y-85769463D01*
X173944180Y-85710498D01*
X173824482Y-85674188D01*
X173700000Y-85661928D01*
X171300000Y-85661928D01*
X171175518Y-85674188D01*
X171055820Y-85710498D01*
X170945506Y-85769463D01*
X170848815Y-85848815D01*
X170769463Y-85945506D01*
X170710498Y-86055820D01*
X170676924Y-86166500D01*
X167789497Y-86166500D01*
X167724000Y-86160049D01*
X167658502Y-86166500D01*
X167658492Y-86166500D01*
X167462588Y-86185795D01*
X167211223Y-86262046D01*
X166979563Y-86385871D01*
X166827394Y-86510752D01*
X166827391Y-86510755D01*
X166776511Y-86552511D01*
X166734755Y-86603391D01*
X159671647Y-93666500D01*
X159323076Y-93666500D01*
X159289502Y-93555820D01*
X159230537Y-93445506D01*
X159151185Y-93348815D01*
X159054494Y-93269463D01*
X158944180Y-93210498D01*
X158824482Y-93174188D01*
X158700000Y-93161928D01*
X158641214Y-93161928D01*
X158330211Y-92995693D01*
X157923238Y-92872239D01*
X157606061Y-92841000D01*
X156219287Y-92841000D01*
X155194000Y-91815714D01*
X155194000Y-89819268D01*
X155665000Y-89819268D01*
X155665000Y-90180732D01*
X155735518Y-90535250D01*
X155873844Y-90869199D01*
X156074662Y-91169744D01*
X156330256Y-91425338D01*
X156630801Y-91626156D01*
X156964750Y-91764482D01*
X157319268Y-91835000D01*
X157680732Y-91835000D01*
X158035250Y-91764482D01*
X158369199Y-91626156D01*
X158669744Y-91425338D01*
X158925338Y-91169744D01*
X159126156Y-90869199D01*
X159264482Y-90535250D01*
X159335000Y-90180732D01*
X159335000Y-89819268D01*
X159264482Y-89464750D01*
X159126156Y-89130801D01*
X158925338Y-88830256D01*
X158669744Y-88574662D01*
X158369199Y-88373844D01*
X158035250Y-88235518D01*
X157680732Y-88165000D01*
X157319268Y-88165000D01*
X156964750Y-88235518D01*
X156630801Y-88373844D01*
X156330256Y-88574662D01*
X156074662Y-88830256D01*
X155873844Y-89130801D01*
X155735518Y-89464750D01*
X155665000Y-89819268D01*
X155194000Y-89819268D01*
X155194000Y-82319268D01*
X170665000Y-82319268D01*
X170665000Y-82680732D01*
X170735518Y-83035250D01*
X170873844Y-83369199D01*
X171074662Y-83669744D01*
X171330256Y-83925338D01*
X171630801Y-84126156D01*
X171964750Y-84264482D01*
X172319268Y-84335000D01*
X172680732Y-84335000D01*
X173035250Y-84264482D01*
X173369199Y-84126156D01*
X173669744Y-83925338D01*
X173925338Y-83669744D01*
X174126156Y-83369199D01*
X174264482Y-83035250D01*
X174335000Y-82680732D01*
X174335000Y-82319268D01*
X174264482Y-81964750D01*
X174126156Y-81630801D01*
X173925338Y-81330256D01*
X173669744Y-81074662D01*
X173369199Y-80873844D01*
X173035250Y-80735518D01*
X172680732Y-80665000D01*
X172319268Y-80665000D01*
X171964750Y-80735518D01*
X171630801Y-80873844D01*
X171330256Y-81074662D01*
X171074662Y-81330256D01*
X170873844Y-81630801D01*
X170735518Y-81964750D01*
X170665000Y-82319268D01*
X155194000Y-82319268D01*
X155194000Y-78439268D01*
X155645000Y-78439268D01*
X155645000Y-78800732D01*
X155715518Y-79155250D01*
X155853844Y-79489199D01*
X156054662Y-79789744D01*
X156310256Y-80045338D01*
X156610801Y-80246156D01*
X156944750Y-80384482D01*
X157299268Y-80455000D01*
X157660732Y-80455000D01*
X158015250Y-80384482D01*
X158349199Y-80246156D01*
X158649744Y-80045338D01*
X158905338Y-79789744D01*
X159106156Y-79489199D01*
X159244482Y-79155250D01*
X159315000Y-78800732D01*
X159315000Y-78439268D01*
X159244482Y-78084750D01*
X159106156Y-77750801D01*
X158905338Y-77450256D01*
X158649744Y-77194662D01*
X158349199Y-76993844D01*
X158015250Y-76855518D01*
X157660732Y-76785000D01*
X157299268Y-76785000D01*
X156944750Y-76855518D01*
X156610801Y-76993844D01*
X156310256Y-77194662D01*
X156054662Y-77450256D01*
X155853844Y-77750801D01*
X155715518Y-78084750D01*
X155645000Y-78439268D01*
X155194000Y-78439268D01*
X155194000Y-74554286D01*
X156469287Y-73279000D01*
X157586061Y-73279000D01*
X157903238Y-73247761D01*
X158310211Y-73124307D01*
X158621214Y-72958072D01*
X158680000Y-72958072D01*
X158804482Y-72945812D01*
X158924180Y-72909502D01*
X159034494Y-72850537D01*
X159131185Y-72771185D01*
X159210537Y-72674494D01*
X159269502Y-72564180D01*
X159305812Y-72444482D01*
X159318072Y-72320000D01*
X159318072Y-72261214D01*
X159484307Y-71950211D01*
X159607761Y-71543238D01*
X159649446Y-71120000D01*
X159607761Y-70696762D01*
X159484307Y-70289789D01*
X159318072Y-69978786D01*
X159318072Y-69920000D01*
X159305812Y-69795518D01*
X159269502Y-69675820D01*
X159210537Y-69565506D01*
X159131185Y-69468815D01*
X159034494Y-69389463D01*
X158924180Y-69330498D01*
X158804482Y-69294188D01*
X158680000Y-69281928D01*
X158621214Y-69281928D01*
X158310211Y-69115693D01*
X157903238Y-68992239D01*
X157586061Y-68961000D01*
X155681050Y-68961000D01*
X155574999Y-68950555D01*
X155468949Y-68961000D01*
X155468939Y-68961000D01*
X155151762Y-68992239D01*
X154744789Y-69115693D01*
X154570198Y-69209014D01*
X154369719Y-69316172D01*
X154243456Y-69419794D01*
X154040970Y-69585970D01*
X153973360Y-69668353D01*
X151583358Y-72058356D01*
X151500970Y-72125970D01*
X151231172Y-72454720D01*
X151030693Y-72829790D01*
X150907239Y-73236763D01*
X150882752Y-73485388D01*
X150865554Y-73660000D01*
X132273419Y-73660000D01*
X132534744Y-73485388D01*
X132790338Y-73229794D01*
X132991156Y-72929249D01*
X133129482Y-72595300D01*
X133200000Y-72240782D01*
X133200000Y-71879318D01*
X133129482Y-71524800D01*
X132991156Y-71190851D01*
X132790338Y-70890306D01*
X132534744Y-70634712D01*
X132234199Y-70433894D01*
X131900250Y-70295568D01*
X131545732Y-70225050D01*
X131184268Y-70225050D01*
X130829750Y-70295568D01*
X130495801Y-70433894D01*
X130195256Y-70634712D01*
X129939662Y-70890306D01*
X129738844Y-71190851D01*
X129600518Y-71524800D01*
X129530000Y-71879318D01*
X128203072Y-71879318D01*
X128203072Y-70860050D01*
X128190812Y-70735568D01*
X128154502Y-70615870D01*
X128095537Y-70505556D01*
X128016185Y-70408865D01*
X127919494Y-70329513D01*
X127809180Y-70270548D01*
X127689482Y-70234238D01*
X127565000Y-70221978D01*
X125165000Y-70221978D01*
X125040518Y-70234238D01*
X124920820Y-70270548D01*
X124810506Y-70329513D01*
X124713815Y-70408865D01*
X124634463Y-70505556D01*
X124575498Y-70615870D01*
X124539188Y-70735568D01*
X124526928Y-70860050D01*
X116783500Y-70860050D01*
X116783500Y-69511632D01*
X116875338Y-69419794D01*
X117076156Y-69119249D01*
X117214482Y-68785300D01*
X117285000Y-68430782D01*
X117285000Y-68069318D01*
X117214482Y-67714800D01*
X117076156Y-67380851D01*
X116875338Y-67080306D01*
X116619744Y-66824712D01*
X116319199Y-66623894D01*
X115985250Y-66485568D01*
X115630732Y-66415050D01*
X115269268Y-66415050D01*
X114914750Y-66485568D01*
X114580801Y-66623894D01*
X114280256Y-66824712D01*
X114024662Y-67080306D01*
X113823844Y-67380851D01*
X113685518Y-67714800D01*
X113615000Y-68069318D01*
X113615000Y-68430782D01*
X113685518Y-68785300D01*
X113823844Y-69119249D01*
X114024662Y-69419794D01*
X114116500Y-69511632D01*
X114116501Y-84195050D01*
X114039268Y-84195050D01*
X113684750Y-84265568D01*
X113350801Y-84403894D01*
X113050256Y-84604712D01*
X112794662Y-84860306D01*
X112593844Y-85160851D01*
X112455518Y-85494800D01*
X112385000Y-85849318D01*
X112385000Y-86210782D01*
X112455518Y-86565300D01*
X112593844Y-86899249D01*
X112794662Y-87199794D01*
X112886500Y-87291632D01*
X112886501Y-100492645D01*
X105737741Y-107641406D01*
X105630128Y-107620000D01*
X105189872Y-107620000D01*
X104758075Y-107705890D01*
X104351331Y-107874369D01*
X103985271Y-108118962D01*
X103673962Y-108430271D01*
X103429369Y-108796331D01*
X103260890Y-109203075D01*
X103175000Y-109634872D01*
X100660000Y-109634872D01*
X100660000Y-95555000D01*
X103171928Y-95555000D01*
X103171928Y-98755000D01*
X103184188Y-98879482D01*
X103220498Y-98999180D01*
X103279463Y-99109494D01*
X103358815Y-99206185D01*
X103455506Y-99285537D01*
X103565820Y-99344502D01*
X103685518Y-99380812D01*
X103810000Y-99393072D01*
X107010000Y-99393072D01*
X107134482Y-99380812D01*
X107254180Y-99344502D01*
X107364494Y-99285537D01*
X107461185Y-99206185D01*
X107540537Y-99109494D01*
X107599502Y-98999180D01*
X107635812Y-98879482D01*
X107648072Y-98755000D01*
X107648072Y-95555000D01*
X107635812Y-95430518D01*
X107599502Y-95310820D01*
X107540537Y-95200506D01*
X107461185Y-95103815D01*
X107364494Y-95024463D01*
X107254180Y-94965498D01*
X107134482Y-94929188D01*
X107010000Y-94916928D01*
X103810000Y-94916928D01*
X103685518Y-94929188D01*
X103565820Y-94965498D01*
X103455506Y-95024463D01*
X103358815Y-95103815D01*
X103279463Y-95200506D01*
X103220498Y-95310820D01*
X103184188Y-95430518D01*
X103171928Y-95555000D01*
X100660000Y-95555000D01*
X100660000Y-84830050D01*
X107381928Y-84830050D01*
X107381928Y-87230050D01*
X107394188Y-87354532D01*
X107430498Y-87474230D01*
X107489463Y-87584544D01*
X107568815Y-87681235D01*
X107665506Y-87760587D01*
X107775820Y-87819552D01*
X107895518Y-87855862D01*
X108020000Y-87868122D01*
X110420000Y-87868122D01*
X110544482Y-87855862D01*
X110664180Y-87819552D01*
X110774494Y-87760587D01*
X110871185Y-87681235D01*
X110950537Y-87584544D01*
X111009502Y-87474230D01*
X111045812Y-87354532D01*
X111058072Y-87230050D01*
X111058072Y-84830050D01*
X111045812Y-84705568D01*
X111009502Y-84585870D01*
X110950537Y-84475556D01*
X110871185Y-84378865D01*
X110774494Y-84299513D01*
X110664180Y-84240548D01*
X110544482Y-84204238D01*
X110420000Y-84191978D01*
X108020000Y-84191978D01*
X107895518Y-84204238D01*
X107775820Y-84240548D01*
X107665506Y-84299513D01*
X107568815Y-84378865D01*
X107489463Y-84475556D01*
X107430498Y-84585870D01*
X107394188Y-84705568D01*
X107381928Y-84830050D01*
X100660000Y-84830050D01*
X100660000Y-67050050D01*
X106111928Y-67050050D01*
X106111928Y-69450050D01*
X106124188Y-69574532D01*
X106160498Y-69694230D01*
X106219463Y-69804544D01*
X106298815Y-69901235D01*
X106395506Y-69980587D01*
X106505820Y-70039552D01*
X106625518Y-70075862D01*
X106750000Y-70088122D01*
X109150000Y-70088122D01*
X109274482Y-70075862D01*
X109394180Y-70039552D01*
X109504494Y-69980587D01*
X109601185Y-69901235D01*
X109680537Y-69804544D01*
X109739502Y-69694230D01*
X109775812Y-69574532D01*
X109788072Y-69450050D01*
X109788072Y-67050050D01*
X109775812Y-66925568D01*
X109739502Y-66805870D01*
X109680537Y-66695556D01*
X109601185Y-66598865D01*
X109504494Y-66519513D01*
X109394180Y-66460548D01*
X109274482Y-66424238D01*
X109150000Y-66411978D01*
X106750000Y-66411978D01*
X106625518Y-66424238D01*
X106505820Y-66460548D01*
X106395506Y-66519513D01*
X106298815Y-66598865D01*
X106219463Y-66695556D01*
X106160498Y-66805870D01*
X106124188Y-66925568D01*
X106111928Y-67050050D01*
X100660000Y-67050050D01*
X100660000Y-55029392D01*
X100698970Y-54592738D01*
X100865000Y-54592738D01*
X100865000Y-55407262D01*
X101023906Y-56206135D01*
X101335611Y-56958657D01*
X101788136Y-57635909D01*
X102364091Y-58211864D01*
X103041343Y-58664389D01*
X103793865Y-58976094D01*
X104592738Y-59135000D01*
X105407262Y-59135000D01*
X106206135Y-58976094D01*
X106958657Y-58664389D01*
X107635909Y-58211864D01*
X108211864Y-57635909D01*
X108664389Y-56958657D01*
X108976094Y-56206135D01*
X109135000Y-55407262D01*
X109135000Y-55202922D01*
X137719000Y-55202922D01*
X137719000Y-55643178D01*
X137804890Y-56074975D01*
X137973369Y-56481719D01*
X138217962Y-56847779D01*
X138529271Y-57159088D01*
X138895331Y-57403681D01*
X139302075Y-57572160D01*
X139733872Y-57658050D01*
X140174128Y-57658050D01*
X140605925Y-57572160D01*
X141012669Y-57403681D01*
X141378729Y-57159088D01*
X141690038Y-56847779D01*
X141934631Y-56481719D01*
X142103110Y-56074975D01*
X142189000Y-55643178D01*
X142189000Y-55202922D01*
X142799000Y-55202922D01*
X142799000Y-55643178D01*
X142884890Y-56074975D01*
X143053369Y-56481719D01*
X143297962Y-56847779D01*
X143609271Y-57159088D01*
X143975331Y-57403681D01*
X144382075Y-57572160D01*
X144813872Y-57658050D01*
X145254128Y-57658050D01*
X145685925Y-57572160D01*
X146092669Y-57403681D01*
X146458729Y-57159088D01*
X146770038Y-56847779D01*
X147014631Y-56481719D01*
X147183110Y-56074975D01*
X147269000Y-55643178D01*
X147269000Y-55202922D01*
X152705000Y-55202922D01*
X152705000Y-55643178D01*
X152790890Y-56074975D01*
X152959369Y-56481719D01*
X153203962Y-56847779D01*
X153515271Y-57159088D01*
X153881331Y-57403681D01*
X154288075Y-57572160D01*
X154719872Y-57658050D01*
X155160128Y-57658050D01*
X155591925Y-57572160D01*
X155998669Y-57403681D01*
X156364729Y-57159088D01*
X156676038Y-56847779D01*
X156920631Y-56481719D01*
X157089110Y-56074975D01*
X157175000Y-55643178D01*
X157175000Y-55202922D01*
X157785000Y-55202922D01*
X157785000Y-55643178D01*
X157870890Y-56074975D01*
X158039369Y-56481719D01*
X158283962Y-56847779D01*
X158595271Y-57159088D01*
X158961331Y-57403681D01*
X159368075Y-57572160D01*
X159799872Y-57658050D01*
X160240128Y-57658050D01*
X160671925Y-57572160D01*
X161078669Y-57403681D01*
X161444729Y-57159088D01*
X161756038Y-56847779D01*
X162000631Y-56481719D01*
X162169110Y-56074975D01*
X162255000Y-55643178D01*
X162255000Y-55202922D01*
X162169110Y-54771125D01*
X162095220Y-54592738D01*
X190865000Y-54592738D01*
X190865000Y-55407262D01*
X191023906Y-56206135D01*
X191335611Y-56958657D01*
X191788136Y-57635909D01*
X192364091Y-58211864D01*
X193041343Y-58664389D01*
X193793865Y-58976094D01*
X194592738Y-59135000D01*
X195407262Y-59135000D01*
X196206135Y-58976094D01*
X196958657Y-58664389D01*
X197635909Y-58211864D01*
X198211864Y-57635909D01*
X198664389Y-56958657D01*
X198976094Y-56206135D01*
X199135000Y-55407262D01*
X199135000Y-54592738D01*
X198976094Y-53793865D01*
X198664389Y-53041343D01*
X198211864Y-52364091D01*
X197635909Y-51788136D01*
X196958657Y-51335611D01*
X196206135Y-51023906D01*
X195407262Y-50865000D01*
X194592738Y-50865000D01*
X193793865Y-51023906D01*
X193041343Y-51335611D01*
X192364091Y-51788136D01*
X191788136Y-52364091D01*
X191335611Y-53041343D01*
X191023906Y-53793865D01*
X190865000Y-54592738D01*
X162095220Y-54592738D01*
X162000631Y-54364381D01*
X161756038Y-53998321D01*
X161444729Y-53687012D01*
X161078669Y-53442419D01*
X160671925Y-53273940D01*
X160240128Y-53188050D01*
X159799872Y-53188050D01*
X159368075Y-53273940D01*
X158961331Y-53442419D01*
X158595271Y-53687012D01*
X158283962Y-53998321D01*
X158039369Y-54364381D01*
X157870890Y-54771125D01*
X157785000Y-55202922D01*
X157175000Y-55202922D01*
X157089110Y-54771125D01*
X156920631Y-54364381D01*
X156676038Y-53998321D01*
X156364729Y-53687012D01*
X155998669Y-53442419D01*
X155591925Y-53273940D01*
X155160128Y-53188050D01*
X154719872Y-53188050D01*
X154288075Y-53273940D01*
X153881331Y-53442419D01*
X153515271Y-53687012D01*
X153203962Y-53998321D01*
X152959369Y-54364381D01*
X152790890Y-54771125D01*
X152705000Y-55202922D01*
X147269000Y-55202922D01*
X147183110Y-54771125D01*
X147014631Y-54364381D01*
X146770038Y-53998321D01*
X146458729Y-53687012D01*
X146092669Y-53442419D01*
X145685925Y-53273940D01*
X145254128Y-53188050D01*
X144813872Y-53188050D01*
X144382075Y-53273940D01*
X143975331Y-53442419D01*
X143609271Y-53687012D01*
X143297962Y-53998321D01*
X143053369Y-54364381D01*
X142884890Y-54771125D01*
X142799000Y-55202922D01*
X142189000Y-55202922D01*
X142103110Y-54771125D01*
X141934631Y-54364381D01*
X141690038Y-53998321D01*
X141378729Y-53687012D01*
X141012669Y-53442419D01*
X140605925Y-53273940D01*
X140174128Y-53188050D01*
X139733872Y-53188050D01*
X139302075Y-53273940D01*
X138895331Y-53442419D01*
X138529271Y-53687012D01*
X138217962Y-53998321D01*
X137973369Y-54364381D01*
X137804890Y-54771125D01*
X137719000Y-55202922D01*
X109135000Y-55202922D01*
X109135000Y-54592738D01*
X108976094Y-53793865D01*
X108664389Y-53041343D01*
X108211864Y-52364091D01*
X107635909Y-51788136D01*
X106958657Y-51335611D01*
X106206135Y-51023906D01*
X105407262Y-50865000D01*
X104592738Y-50865000D01*
X103793865Y-51023906D01*
X103041343Y-51335611D01*
X102364091Y-51788136D01*
X101788136Y-52364091D01*
X101335611Y-53041343D01*
X101023906Y-53793865D01*
X100865000Y-54592738D01*
X100698970Y-54592738D01*
X100731173Y-54231917D01*
X100934656Y-53488109D01*
X101266638Y-52792095D01*
X101716626Y-52165870D01*
X102270403Y-51629223D01*
X102910451Y-51199129D01*
X103616553Y-50889171D01*
X104371457Y-50707935D01*
X105024220Y-50659999D01*
X194970888Y-50660025D01*
G37*
X194970888Y-50660025D02*
X195768083Y-50731173D01*
X196511891Y-50934656D01*
X197207905Y-51266638D01*
X197834130Y-51716626D01*
X198370777Y-52270403D01*
X198800871Y-52910451D01*
X199110829Y-53616553D01*
X199292065Y-54371457D01*
X199340000Y-55024208D01*
X199340101Y-144969477D01*
X199268827Y-145768083D01*
X199065344Y-146511890D01*
X198733363Y-147207904D01*
X198283374Y-147834130D01*
X197729597Y-148370777D01*
X197089549Y-148800871D01*
X196383447Y-149110829D01*
X195628543Y-149292065D01*
X194975793Y-149340000D01*
X105029392Y-149340000D01*
X104231917Y-149268827D01*
X103488110Y-149065344D01*
X102792096Y-148733363D01*
X102165870Y-148283374D01*
X101629223Y-147729597D01*
X101199129Y-147089549D01*
X100889171Y-146383447D01*
X100707935Y-145628543D01*
X100660000Y-144975793D01*
X100660000Y-144592738D01*
X100865000Y-144592738D01*
X100865000Y-145407262D01*
X101023906Y-146206135D01*
X101335611Y-146958657D01*
X101788136Y-147635909D01*
X102364091Y-148211864D01*
X103041343Y-148664389D01*
X103793865Y-148976094D01*
X104592738Y-149135000D01*
X105407262Y-149135000D01*
X106206135Y-148976094D01*
X106958657Y-148664389D01*
X107635909Y-148211864D01*
X108211864Y-147635909D01*
X108664389Y-146958657D01*
X108976094Y-146206135D01*
X109135000Y-145407262D01*
X109135000Y-144592738D01*
X109088094Y-144356922D01*
X112065000Y-144356922D01*
X112065000Y-144797178D01*
X112150890Y-145228975D01*
X112319369Y-145635719D01*
X112563962Y-146001779D01*
X112875271Y-146313088D01*
X113241331Y-146557681D01*
X113648075Y-146726160D01*
X114079872Y-146812050D01*
X114520128Y-146812050D01*
X114951925Y-146726160D01*
X115358669Y-146557681D01*
X115724729Y-146313088D01*
X116036038Y-146001779D01*
X116280631Y-145635719D01*
X116449110Y-145228975D01*
X116535000Y-144797178D01*
X116535000Y-144356922D01*
X117145000Y-144356922D01*
X117145000Y-144797178D01*
X117230890Y-145228975D01*
X117399369Y-145635719D01*
X117643962Y-146001779D01*
X117955271Y-146313088D01*
X118321331Y-146557681D01*
X118728075Y-146726160D01*
X119159872Y-146812050D01*
X119600128Y-146812050D01*
X120031925Y-146726160D01*
X120438669Y-146557681D01*
X120804729Y-146313088D01*
X121116038Y-146001779D01*
X121360631Y-145635719D01*
X121529110Y-145228975D01*
X121615000Y-144797178D01*
X121615000Y-144356922D01*
X122225000Y-144356922D01*
X122225000Y-144797178D01*
X122310890Y-145228975D01*
X122479369Y-145635719D01*
X122723962Y-146001779D01*
X123035271Y-146313088D01*
X123401331Y-146557681D01*
X123808075Y-146726160D01*
X124239872Y-146812050D01*
X124680128Y-146812050D01*
X125111925Y-146726160D01*
X125518669Y-146557681D01*
X125884729Y-146313088D01*
X126196038Y-146001779D01*
X126440631Y-145635719D01*
X126609110Y-145228975D01*
X126695000Y-144797178D01*
X126695000Y-144356922D01*
X127305000Y-144356922D01*
X127305000Y-144797178D01*
X127390890Y-145228975D01*
X127559369Y-145635719D01*
X127803962Y-146001779D01*
X128115271Y-146313088D01*
X128481331Y-146557681D01*
X128888075Y-146726160D01*
X129319872Y-146812050D01*
X129760128Y-146812050D01*
X130191925Y-146726160D01*
X130598669Y-146557681D01*
X130964729Y-146313088D01*
X131276038Y-146001779D01*
X131520631Y-145635719D01*
X131689110Y-145228975D01*
X131775000Y-144797178D01*
X131775000Y-144356922D01*
X169215000Y-144356922D01*
X169215000Y-144797178D01*
X169300890Y-145228975D01*
X169469369Y-145635719D01*
X169713962Y-146001779D01*
X170025271Y-146313088D01*
X170391331Y-146557681D01*
X170798075Y-146726160D01*
X171229872Y-146812050D01*
X171670128Y-146812050D01*
X172101925Y-146726160D01*
X172508669Y-146557681D01*
X172874729Y-146313088D01*
X173186038Y-146001779D01*
X173430631Y-145635719D01*
X173599110Y-145228975D01*
X173685000Y-144797178D01*
X173685000Y-144356922D01*
X174295000Y-144356922D01*
X174295000Y-144797178D01*
X174380890Y-145228975D01*
X174549369Y-145635719D01*
X174793962Y-146001779D01*
X175105271Y-146313088D01*
X175471331Y-146557681D01*
X175878075Y-146726160D01*
X176309872Y-146812050D01*
X176750128Y-146812050D01*
X177181925Y-146726160D01*
X177588669Y-146557681D01*
X177954729Y-146313088D01*
X178266038Y-146001779D01*
X178510631Y-145635719D01*
X178679110Y-145228975D01*
X178765000Y-144797178D01*
X178765000Y-144356922D01*
X179375000Y-144356922D01*
X179375000Y-144797178D01*
X179460890Y-145228975D01*
X179629369Y-145635719D01*
X179873962Y-146001779D01*
X180185271Y-146313088D01*
X180551331Y-146557681D01*
X180958075Y-146726160D01*
X181389872Y-146812050D01*
X181830128Y-146812050D01*
X182261925Y-146726160D01*
X182668669Y-146557681D01*
X183034729Y-146313088D01*
X183346038Y-146001779D01*
X183590631Y-145635719D01*
X183759110Y-145228975D01*
X183845000Y-144797178D01*
X183845000Y-144356922D01*
X184455000Y-144356922D01*
X184455000Y-144797178D01*
X184540890Y-145228975D01*
X184709369Y-145635719D01*
X184953962Y-146001779D01*
X185265271Y-146313088D01*
X185631331Y-146557681D01*
X186038075Y-146726160D01*
X186469872Y-146812050D01*
X186910128Y-146812050D01*
X187341925Y-146726160D01*
X187748669Y-146557681D01*
X188114729Y-146313088D01*
X188426038Y-146001779D01*
X188670631Y-145635719D01*
X188839110Y-145228975D01*
X188925000Y-144797178D01*
X188925000Y-144592738D01*
X190865000Y-144592738D01*
X190865000Y-145407262D01*
X191023906Y-146206135D01*
X191335611Y-146958657D01*
X191788136Y-147635909D01*
X192364091Y-148211864D01*
X193041343Y-148664389D01*
X193793865Y-148976094D01*
X194592738Y-149135000D01*
X195407262Y-149135000D01*
X196206135Y-148976094D01*
X196958657Y-148664389D01*
X197635909Y-148211864D01*
X198211864Y-147635909D01*
X198664389Y-146958657D01*
X198976094Y-146206135D01*
X199135000Y-145407262D01*
X199135000Y-144592738D01*
X198976094Y-143793865D01*
X198664389Y-143041343D01*
X198211864Y-142364091D01*
X197635909Y-141788136D01*
X196958657Y-141335611D01*
X196206135Y-141023906D01*
X195407262Y-140865000D01*
X194592738Y-140865000D01*
X193793865Y-141023906D01*
X193041343Y-141335611D01*
X192364091Y-141788136D01*
X191788136Y-142364091D01*
X191335611Y-143041343D01*
X191023906Y-143793865D01*
X190865000Y-144592738D01*
X188925000Y-144592738D01*
X188925000Y-144356922D01*
X188839110Y-143925125D01*
X188670631Y-143518381D01*
X188426038Y-143152321D01*
X188114729Y-142841012D01*
X187748669Y-142596419D01*
X187341925Y-142427940D01*
X186910128Y-142342050D01*
X186469872Y-142342050D01*
X186038075Y-142427940D01*
X185631331Y-142596419D01*
X185265271Y-142841012D01*
X184953962Y-143152321D01*
X184709369Y-143518381D01*
X184540890Y-143925125D01*
X184455000Y-144356922D01*
X183845000Y-144356922D01*
X183759110Y-143925125D01*
X183590631Y-143518381D01*
X183346038Y-143152321D01*
X183034729Y-142841012D01*
X182668669Y-142596419D01*
X182261925Y-142427940D01*
X181830128Y-142342050D01*
X181389872Y-142342050D01*
X180958075Y-142427940D01*
X180551331Y-142596419D01*
X180185271Y-142841012D01*
X179873962Y-143152321D01*
X179629369Y-143518381D01*
X179460890Y-143925125D01*
X179375000Y-144356922D01*
X178765000Y-144356922D01*
X178679110Y-143925125D01*
X178510631Y-143518381D01*
X178266038Y-143152321D01*
X177954729Y-142841012D01*
X177588669Y-142596419D01*
X177181925Y-142427940D01*
X176750128Y-142342050D01*
X176309872Y-142342050D01*
X175878075Y-142427940D01*
X175471331Y-142596419D01*
X175105271Y-142841012D01*
X174793962Y-143152321D01*
X174549369Y-143518381D01*
X174380890Y-143925125D01*
X174295000Y-144356922D01*
X173685000Y-144356922D01*
X173599110Y-143925125D01*
X173430631Y-143518381D01*
X173186038Y-143152321D01*
X172874729Y-142841012D01*
X172508669Y-142596419D01*
X172101925Y-142427940D01*
X171670128Y-142342050D01*
X171229872Y-142342050D01*
X170798075Y-142427940D01*
X170391331Y-142596419D01*
X170025271Y-142841012D01*
X169713962Y-143152321D01*
X169469369Y-143518381D01*
X169300890Y-143925125D01*
X169215000Y-144356922D01*
X131775000Y-144356922D01*
X131689110Y-143925125D01*
X131520631Y-143518381D01*
X131276038Y-143152321D01*
X130964729Y-142841012D01*
X130598669Y-142596419D01*
X130191925Y-142427940D01*
X129760128Y-142342050D01*
X129319872Y-142342050D01*
X128888075Y-142427940D01*
X128481331Y-142596419D01*
X128115271Y-142841012D01*
X127803962Y-143152321D01*
X127559369Y-143518381D01*
X127390890Y-143925125D01*
X127305000Y-144356922D01*
X126695000Y-144356922D01*
X126609110Y-143925125D01*
X126440631Y-143518381D01*
X126196038Y-143152321D01*
X125884729Y-142841012D01*
X125518669Y-142596419D01*
X125111925Y-142427940D01*
X124680128Y-142342050D01*
X124239872Y-142342050D01*
X123808075Y-142427940D01*
X123401331Y-142596419D01*
X123035271Y-142841012D01*
X122723962Y-143152321D01*
X122479369Y-143518381D01*
X122310890Y-143925125D01*
X122225000Y-144356922D01*
X121615000Y-144356922D01*
X121529110Y-143925125D01*
X121360631Y-143518381D01*
X121116038Y-143152321D01*
X120804729Y-142841012D01*
X120438669Y-142596419D01*
X120031925Y-142427940D01*
X119600128Y-142342050D01*
X119159872Y-142342050D01*
X118728075Y-142427940D01*
X118321331Y-142596419D01*
X117955271Y-142841012D01*
X117643962Y-143152321D01*
X117399369Y-143518381D01*
X117230890Y-143925125D01*
X117145000Y-144356922D01*
X116535000Y-144356922D01*
X116449110Y-143925125D01*
X116280631Y-143518381D01*
X116036038Y-143152321D01*
X115724729Y-142841012D01*
X115358669Y-142596419D01*
X114951925Y-142427940D01*
X114520128Y-142342050D01*
X114079872Y-142342050D01*
X113648075Y-142427940D01*
X113241331Y-142596419D01*
X112875271Y-142841012D01*
X112563962Y-143152321D01*
X112319369Y-143518381D01*
X112150890Y-143925125D01*
X112065000Y-144356922D01*
X109088094Y-144356922D01*
X108976094Y-143793865D01*
X108664389Y-143041343D01*
X108211864Y-142364091D01*
X107635909Y-141788136D01*
X106958657Y-141335611D01*
X106206135Y-141023906D01*
X105407262Y-140865000D01*
X104592738Y-140865000D01*
X103793865Y-141023906D01*
X103041343Y-141335611D01*
X102364091Y-141788136D01*
X101788136Y-142364091D01*
X101335611Y-143041343D01*
X101023906Y-143793865D01*
X100865000Y-144592738D01*
X100660000Y-144592738D01*
X100660000Y-131838967D01*
X188365000Y-131838967D01*
X188365000Y-132161033D01*
X188427832Y-132476912D01*
X188551082Y-132774463D01*
X188730013Y-133042252D01*
X188957748Y-133269987D01*
X189225537Y-133448918D01*
X189523088Y-133572168D01*
X189838967Y-133635000D01*
X190161033Y-133635000D01*
X190476912Y-133572168D01*
X190774463Y-133448918D01*
X191042252Y-133269987D01*
X191269987Y-133042252D01*
X191448918Y-132774463D01*
X191572168Y-132476912D01*
X191635000Y-132161033D01*
X191635000Y-131838967D01*
X191572168Y-131523088D01*
X191448918Y-131225537D01*
X191269987Y-130957748D01*
X191042252Y-130730013D01*
X190774463Y-130551082D01*
X190476912Y-130427832D01*
X190161033Y-130365000D01*
X189838967Y-130365000D01*
X189523088Y-130427832D01*
X189225537Y-130551082D01*
X188957748Y-130730013D01*
X188730013Y-130957748D01*
X188551082Y-131225537D01*
X188427832Y-131523088D01*
X188365000Y-131838967D01*
X100660000Y-131838967D01*
X100660000Y-128740000D01*
X110321928Y-128740000D01*
X110321928Y-130340000D01*
X110334188Y-130464482D01*
X110370498Y-130584180D01*
X110429463Y-130694494D01*
X110508815Y-130791185D01*
X110605506Y-130870537D01*
X110715820Y-130929502D01*
X110835518Y-130965812D01*
X110960000Y-130978072D01*
X112560000Y-130978072D01*
X112684482Y-130965812D01*
X112804180Y-130929502D01*
X112914494Y-130870537D01*
X113011185Y-130791185D01*
X113090537Y-130694494D01*
X113149502Y-130584180D01*
X113185812Y-130464482D01*
X113198072Y-130340000D01*
X113198072Y-129398665D01*
X113825000Y-129398665D01*
X113825000Y-129681335D01*
X113880147Y-129958574D01*
X113988320Y-130219727D01*
X114145363Y-130454759D01*
X114345241Y-130654637D01*
X114580273Y-130811680D01*
X114841426Y-130919853D01*
X115118665Y-130975000D01*
X115401335Y-130975000D01*
X115678574Y-130919853D01*
X115939727Y-130811680D01*
X116174759Y-130654637D01*
X116374637Y-130454759D01*
X116531680Y-130219727D01*
X116639853Y-129958574D01*
X116695000Y-129681335D01*
X116695000Y-129398665D01*
X116639853Y-129121426D01*
X116531680Y-128860273D01*
X116451317Y-128740000D01*
X128101928Y-128740000D01*
X128101928Y-130340000D01*
X128114188Y-130464482D01*
X128150498Y-130584180D01*
X128209463Y-130694494D01*
X128288815Y-130791185D01*
X128385506Y-130870537D01*
X128495820Y-130929502D01*
X128615518Y-130965812D01*
X128740000Y-130978072D01*
X130340000Y-130978072D01*
X130464482Y-130965812D01*
X130584180Y-130929502D01*
X130694494Y-130870537D01*
X130791185Y-130791185D01*
X130870537Y-130694494D01*
X130929502Y-130584180D01*
X130965812Y-130464482D01*
X130978072Y-130340000D01*
X130978072Y-129398665D01*
X131605000Y-129398665D01*
X131605000Y-129681335D01*
X131660147Y-129958574D01*
X131768320Y-130219727D01*
X131925363Y-130454759D01*
X132125241Y-130654637D01*
X132360273Y-130811680D01*
X132621426Y-130919853D01*
X132898665Y-130975000D01*
X133181335Y-130975000D01*
X133458574Y-130919853D01*
X133570480Y-130873500D01*
X139888503Y-130873500D01*
X139954000Y-130879951D01*
X140019497Y-130873500D01*
X140019508Y-130873500D01*
X140215412Y-130854205D01*
X140466777Y-130777954D01*
X140698437Y-130654129D01*
X140901489Y-130487489D01*
X140943250Y-130436603D01*
X142000886Y-129378967D01*
X150003000Y-129378967D01*
X150003000Y-129701033D01*
X150065832Y-130016912D01*
X150189082Y-130314463D01*
X150368013Y-130582252D01*
X150595748Y-130809987D01*
X150863537Y-130988918D01*
X151161088Y-131112168D01*
X151476967Y-131175000D01*
X151799033Y-131175000D01*
X152114912Y-131112168D01*
X152412463Y-130988918D01*
X152585198Y-130873500D01*
X153992802Y-130873500D01*
X154165537Y-130988918D01*
X154463088Y-131112168D01*
X154778967Y-131175000D01*
X155101033Y-131175000D01*
X155416912Y-131112168D01*
X155714463Y-130988918D01*
X155887198Y-130873500D01*
X161046503Y-130873500D01*
X161112000Y-130879951D01*
X161177497Y-130873500D01*
X161177508Y-130873500D01*
X161373412Y-130854205D01*
X161624777Y-130777954D01*
X161856437Y-130654129D01*
X162059489Y-130487489D01*
X162101250Y-130436603D01*
X163797853Y-128740000D01*
X168741928Y-128740000D01*
X168741928Y-130340000D01*
X168754188Y-130464482D01*
X168790498Y-130584180D01*
X168849463Y-130694494D01*
X168928815Y-130791185D01*
X169025506Y-130870537D01*
X169135820Y-130929502D01*
X169255518Y-130965812D01*
X169380000Y-130978072D01*
X170980000Y-130978072D01*
X171104482Y-130965812D01*
X171224180Y-130929502D01*
X171334494Y-130870537D01*
X171431185Y-130791185D01*
X171510537Y-130694494D01*
X171569502Y-130584180D01*
X171605812Y-130464482D01*
X171618072Y-130340000D01*
X171618072Y-129398665D01*
X172245000Y-129398665D01*
X172245000Y-129681335D01*
X172300147Y-129958574D01*
X172408320Y-130219727D01*
X172565363Y-130454759D01*
X172765241Y-130654637D01*
X173000273Y-130811680D01*
X173261426Y-130919853D01*
X173538665Y-130975000D01*
X173821335Y-130975000D01*
X174098574Y-130919853D01*
X174359727Y-130811680D01*
X174594759Y-130654637D01*
X174794637Y-130454759D01*
X174951680Y-130219727D01*
X175059853Y-129958574D01*
X175115000Y-129681335D01*
X175115000Y-129398665D01*
X175059853Y-129121426D01*
X174951680Y-128860273D01*
X174794637Y-128625241D01*
X174594759Y-128425363D01*
X174359727Y-128268320D01*
X174098574Y-128160147D01*
X173821335Y-128105000D01*
X173538665Y-128105000D01*
X173261426Y-128160147D01*
X173000273Y-128268320D01*
X172765241Y-128425363D01*
X172565363Y-128625241D01*
X172408320Y-128860273D01*
X172300147Y-129121426D01*
X172245000Y-129398665D01*
X171618072Y-129398665D01*
X171618072Y-128740000D01*
X171605812Y-128615518D01*
X171569502Y-128495820D01*
X171510537Y-128385506D01*
X171431185Y-128288815D01*
X171334494Y-128209463D01*
X171224180Y-128150498D01*
X171104482Y-128114188D01*
X170980000Y-128101928D01*
X169380000Y-128101928D01*
X169255518Y-128114188D01*
X169135820Y-128150498D01*
X169025506Y-128209463D01*
X168928815Y-128288815D01*
X168849463Y-128385506D01*
X168790498Y-128495820D01*
X168754188Y-128615518D01*
X168741928Y-128740000D01*
X163797853Y-128740000D01*
X166537853Y-126000000D01*
X188361928Y-126000000D01*
X188361928Y-128000000D01*
X188374188Y-128124482D01*
X188410498Y-128244180D01*
X188469463Y-128354494D01*
X188548815Y-128451185D01*
X188645506Y-128530537D01*
X188755820Y-128589502D01*
X188875518Y-128625812D01*
X189000000Y-128638072D01*
X191000000Y-128638072D01*
X191124482Y-128625812D01*
X191244180Y-128589502D01*
X191354494Y-128530537D01*
X191451185Y-128451185D01*
X191530537Y-128354494D01*
X191589502Y-128244180D01*
X191625812Y-128124482D01*
X191638072Y-128000000D01*
X191638072Y-126000000D01*
X191625812Y-125875518D01*
X191589502Y-125755820D01*
X191530537Y-125645506D01*
X191451185Y-125548815D01*
X191354494Y-125469463D01*
X191244180Y-125410498D01*
X191124482Y-125374188D01*
X191000000Y-125361928D01*
X189000000Y-125361928D01*
X188875518Y-125374188D01*
X188755820Y-125410498D01*
X188645506Y-125469463D01*
X188548815Y-125548815D01*
X188469463Y-125645506D01*
X188410498Y-125755820D01*
X188374188Y-125875518D01*
X188361928Y-126000000D01*
X166537853Y-126000000D01*
X170441610Y-122096244D01*
X170492489Y-122054489D01*
X170534245Y-122003609D01*
X170534248Y-122003606D01*
X170659129Y-121851438D01*
X170782953Y-121619778D01*
X170782954Y-121619777D01*
X170859205Y-121368412D01*
X170878500Y-121172508D01*
X170878500Y-121172498D01*
X170884951Y-121107000D01*
X170878500Y-121041503D01*
X170878500Y-120348072D01*
X171145000Y-120348072D01*
X171269482Y-120335812D01*
X171389180Y-120299502D01*
X171499494Y-120240537D01*
X171596185Y-120161185D01*
X171675537Y-120064494D01*
X171734502Y-119954180D01*
X171770812Y-119834482D01*
X171783072Y-119710000D01*
X171783072Y-116510000D01*
X171770812Y-116385518D01*
X171734502Y-116265820D01*
X171675537Y-116155506D01*
X171596185Y-116058815D01*
X171499494Y-115979463D01*
X171389180Y-115920498D01*
X171269482Y-115884188D01*
X171145000Y-115871928D01*
X167945000Y-115871928D01*
X167820518Y-115884188D01*
X167700820Y-115920498D01*
X167590506Y-115979463D01*
X167493815Y-116058815D01*
X167414463Y-116155506D01*
X167355498Y-116265820D01*
X167319188Y-116385518D01*
X167306928Y-116510000D01*
X167306928Y-119710000D01*
X167319188Y-119834482D01*
X167355498Y-119954180D01*
X167414463Y-120064494D01*
X167493815Y-120161185D01*
X167590506Y-120240537D01*
X167700820Y-120299502D01*
X167820518Y-120335812D01*
X167945000Y-120348072D01*
X168211500Y-120348072D01*
X168211500Y-120554646D01*
X160559647Y-128206500D01*
X155887198Y-128206500D01*
X155714463Y-128091082D01*
X155416912Y-127967832D01*
X155101033Y-127905000D01*
X154778967Y-127905000D01*
X154463088Y-127967832D01*
X154165537Y-128091082D01*
X153992802Y-128206500D01*
X152585198Y-128206500D01*
X152412463Y-128091082D01*
X152114912Y-127967832D01*
X151799033Y-127905000D01*
X151476967Y-127905000D01*
X151161088Y-127967832D01*
X150863537Y-128091082D01*
X150595748Y-128270013D01*
X150368013Y-128497748D01*
X150189082Y-128765537D01*
X150065832Y-129063088D01*
X150003000Y-129378967D01*
X142000886Y-129378967D01*
X147581609Y-123798245D01*
X147632489Y-123756489D01*
X147674247Y-123705607D01*
X147799129Y-123553438D01*
X147922953Y-123321778D01*
X147922954Y-123321777D01*
X147999205Y-123070412D01*
X148018500Y-122874508D01*
X148018500Y-122874499D01*
X148024951Y-122809001D01*
X148018500Y-122743503D01*
X148018500Y-105189872D01*
X167310000Y-105189872D01*
X167310000Y-105630128D01*
X167395890Y-106061925D01*
X167564369Y-106468669D01*
X167808962Y-106834729D01*
X168120271Y-107146038D01*
X168486331Y-107390631D01*
X168893075Y-107559110D01*
X169324872Y-107645000D01*
X169765128Y-107645000D01*
X170196925Y-107559110D01*
X170603669Y-107390631D01*
X170969729Y-107146038D01*
X171281038Y-106834729D01*
X171525631Y-106468669D01*
X171694110Y-106061925D01*
X171780000Y-105630128D01*
X171780000Y-105189872D01*
X171694110Y-104758075D01*
X171525631Y-104351331D01*
X171281038Y-103985271D01*
X170969729Y-103673962D01*
X170603669Y-103429369D01*
X170196925Y-103260890D01*
X169765128Y-103175000D01*
X169324872Y-103175000D01*
X168893075Y-103260890D01*
X168486331Y-103429369D01*
X168120271Y-103673962D01*
X167808962Y-103985271D01*
X167564369Y-104351331D01*
X167395890Y-104758075D01*
X167310000Y-105189872D01*
X148018500Y-105189872D01*
X148018500Y-98095000D01*
X180261928Y-98095000D01*
X180261928Y-101295000D01*
X180274188Y-101419482D01*
X180310498Y-101539180D01*
X180369463Y-101649494D01*
X180448815Y-101746185D01*
X180545506Y-101825537D01*
X180655820Y-101884502D01*
X180775518Y-101920812D01*
X180900000Y-101933072D01*
X184100000Y-101933072D01*
X184224482Y-101920812D01*
X184344180Y-101884502D01*
X184454494Y-101825537D01*
X184551185Y-101746185D01*
X184630537Y-101649494D01*
X184689502Y-101539180D01*
X184725812Y-101419482D01*
X184738072Y-101295000D01*
X184738072Y-99474872D01*
X192965000Y-99474872D01*
X192965000Y-99915128D01*
X193050890Y-100346925D01*
X193219369Y-100753669D01*
X193463962Y-101119729D01*
X193775271Y-101431038D01*
X194141331Y-101675631D01*
X194548075Y-101844110D01*
X194979872Y-101930000D01*
X195420128Y-101930000D01*
X195851925Y-101844110D01*
X196258669Y-101675631D01*
X196624729Y-101431038D01*
X196936038Y-101119729D01*
X197180631Y-100753669D01*
X197349110Y-100346925D01*
X197435000Y-99915128D01*
X197435000Y-99474872D01*
X197349110Y-99043075D01*
X197180631Y-98636331D01*
X196936038Y-98270271D01*
X196624729Y-97958962D01*
X196258669Y-97714369D01*
X195851925Y-97545890D01*
X195420128Y-97460000D01*
X194979872Y-97460000D01*
X194548075Y-97545890D01*
X194141331Y-97714369D01*
X193775271Y-97958962D01*
X193463962Y-98270271D01*
X193219369Y-98636331D01*
X193050890Y-99043075D01*
X192965000Y-99474872D01*
X184738072Y-99474872D01*
X184738072Y-98095000D01*
X184725812Y-97970518D01*
X184689502Y-97850820D01*
X184630537Y-97740506D01*
X184551185Y-97643815D01*
X184454494Y-97564463D01*
X184344180Y-97505498D01*
X184224482Y-97469188D01*
X184100000Y-97456928D01*
X180900000Y-97456928D01*
X180775518Y-97469188D01*
X180655820Y-97505498D01*
X180545506Y-97564463D01*
X180448815Y-97643815D01*
X180369463Y-97740506D01*
X180310498Y-97850820D01*
X180274188Y-97970518D01*
X180261928Y-98095000D01*
X148018500Y-98095000D01*
X148018500Y-96411995D01*
X148109729Y-96351038D01*
X148421038Y-96039729D01*
X148665631Y-95673669D01*
X148834110Y-95266925D01*
X148920000Y-94835128D01*
X148920000Y-94394872D01*
X148834110Y-93963075D01*
X148665631Y-93556331D01*
X148421038Y-93190271D01*
X148109729Y-92878962D01*
X147743669Y-92634369D01*
X147336925Y-92465890D01*
X146905128Y-92380000D01*
X146464872Y-92380000D01*
X146033075Y-92465890D01*
X145626331Y-92634369D01*
X145260271Y-92878962D01*
X144948962Y-93190271D01*
X144704369Y-93556331D01*
X144535890Y-93963075D01*
X144450000Y-94394872D01*
X144450000Y-94835128D01*
X144535890Y-95266925D01*
X144704369Y-95673669D01*
X144948962Y-96039729D01*
X145260271Y-96351038D01*
X145351500Y-96411995D01*
X145351501Y-122256645D01*
X139401647Y-128206500D01*
X133570480Y-128206500D01*
X133458574Y-128160147D01*
X133181335Y-128105000D01*
X132898665Y-128105000D01*
X132621426Y-128160147D01*
X132360273Y-128268320D01*
X132125241Y-128425363D01*
X131925363Y-128625241D01*
X131768320Y-128860273D01*
X131660147Y-129121426D01*
X131605000Y-129398665D01*
X130978072Y-129398665D01*
X130978072Y-128740000D01*
X130965812Y-128615518D01*
X130929502Y-128495820D01*
X130870537Y-128385506D01*
X130791185Y-128288815D01*
X130694494Y-128209463D01*
X130584180Y-128150498D01*
X130464482Y-128114188D01*
X130340000Y-128101928D01*
X128740000Y-128101928D01*
X128615518Y-128114188D01*
X128495820Y-128150498D01*
X128385506Y-128209463D01*
X128288815Y-128288815D01*
X128209463Y-128385506D01*
X128150498Y-128495820D01*
X128114188Y-128615518D01*
X128101928Y-128740000D01*
X116451317Y-128740000D01*
X116374637Y-128625241D01*
X116174759Y-128425363D01*
X115939727Y-128268320D01*
X115678574Y-128160147D01*
X115401335Y-128105000D01*
X115118665Y-128105000D01*
X114841426Y-128160147D01*
X114580273Y-128268320D01*
X114345241Y-128425363D01*
X114145363Y-128625241D01*
X113988320Y-128860273D01*
X113880147Y-129121426D01*
X113825000Y-129398665D01*
X113198072Y-129398665D01*
X113198072Y-128740000D01*
X113185812Y-128615518D01*
X113149502Y-128495820D01*
X113090537Y-128385506D01*
X113011185Y-128288815D01*
X112914494Y-128209463D01*
X112804180Y-128150498D01*
X112684482Y-128114188D01*
X112560000Y-128101928D01*
X110960000Y-128101928D01*
X110835518Y-128114188D01*
X110715820Y-128150498D01*
X110605506Y-128209463D01*
X110508815Y-128288815D01*
X110429463Y-128385506D01*
X110370498Y-128495820D01*
X110334188Y-128615518D01*
X110321928Y-128740000D01*
X100660000Y-128740000D01*
X100660000Y-109634872D01*
X103175000Y-109634872D01*
X103175000Y-110075128D01*
X103260890Y-110506925D01*
X103429369Y-110913669D01*
X103673962Y-111279729D01*
X103985271Y-111591038D01*
X104351331Y-111835631D01*
X104758075Y-112004110D01*
X105189872Y-112090000D01*
X105630128Y-112090000D01*
X106061925Y-112004110D01*
X106468669Y-111835631D01*
X106834729Y-111591038D01*
X107146038Y-111279729D01*
X107390631Y-110913669D01*
X107559110Y-110506925D01*
X107645000Y-110075128D01*
X107645000Y-109634872D01*
X107623594Y-109527259D01*
X115116609Y-102034245D01*
X115167489Y-101992489D01*
X115209247Y-101941607D01*
X115334129Y-101789438D01*
X115457953Y-101557778D01*
X115457954Y-101557777D01*
X115534205Y-101306412D01*
X115553500Y-101110508D01*
X115553500Y-101110499D01*
X115559951Y-101045001D01*
X115553500Y-100979503D01*
X115553500Y-93015000D01*
X131746928Y-93015000D01*
X131746928Y-96215000D01*
X131759188Y-96339482D01*
X131795498Y-96459180D01*
X131854463Y-96569494D01*
X131933815Y-96666185D01*
X132030506Y-96745537D01*
X132140820Y-96804502D01*
X132260518Y-96840812D01*
X132385000Y-96853072D01*
X135585000Y-96853072D01*
X135709482Y-96840812D01*
X135829180Y-96804502D01*
X135939494Y-96745537D01*
X136036185Y-96666185D01*
X136115537Y-96569494D01*
X136174502Y-96459180D01*
X136210812Y-96339482D01*
X136223072Y-96215000D01*
X136223072Y-93015000D01*
X136210812Y-92890518D01*
X136174502Y-92770820D01*
X136115537Y-92660506D01*
X136036185Y-92563815D01*
X135939494Y-92484463D01*
X135829180Y-92425498D01*
X135709482Y-92389188D01*
X135585000Y-92376928D01*
X132385000Y-92376928D01*
X132260518Y-92389188D01*
X132140820Y-92425498D01*
X132030506Y-92484463D01*
X131933815Y-92563815D01*
X131854463Y-92660506D01*
X131795498Y-92770820D01*
X131759188Y-92890518D01*
X131746928Y-93015000D01*
X115553500Y-93015000D01*
X115553500Y-87291632D01*
X115645338Y-87199794D01*
X115846156Y-86899249D01*
X115984482Y-86565300D01*
X116055000Y-86210782D01*
X116055000Y-86080904D01*
X116346609Y-85789295D01*
X116397489Y-85747539D01*
X116439245Y-85696659D01*
X116439248Y-85696656D01*
X116564129Y-85544487D01*
X116687953Y-85312828D01*
X116687954Y-85312827D01*
X116764205Y-85061462D01*
X116783500Y-84865558D01*
X116783500Y-84865555D01*
X116789952Y-84800050D01*
X116783500Y-84734545D01*
X116783500Y-70860050D01*
X124526928Y-70860050D01*
X124526928Y-73260050D01*
X124539188Y-73384532D01*
X124575498Y-73504230D01*
X124634463Y-73614544D01*
X124713815Y-73711235D01*
X124810506Y-73790587D01*
X124920820Y-73849552D01*
X125040518Y-73885862D01*
X125165000Y-73898122D01*
X127565000Y-73898122D01*
X127689482Y-73885862D01*
X127809180Y-73849552D01*
X127919494Y-73790587D01*
X128016185Y-73711235D01*
X128095537Y-73614544D01*
X128154502Y-73504230D01*
X128190812Y-73384532D01*
X128203072Y-73260050D01*
X128203072Y-71879318D01*
X129530000Y-71879318D01*
X129530000Y-72240782D01*
X129600518Y-72595300D01*
X129738844Y-72929249D01*
X129939662Y-73229794D01*
X130195256Y-73485388D01*
X130495801Y-73686206D01*
X130829750Y-73824532D01*
X131184268Y-73895050D01*
X131545732Y-73895050D01*
X131900250Y-73824532D01*
X132234199Y-73686206D01*
X132273419Y-73660000D01*
X150865554Y-73660000D01*
X150876000Y-73766058D01*
X150876001Y-92603932D01*
X150865554Y-92710000D01*
X150903407Y-93094325D01*
X150907240Y-93133238D01*
X151001966Y-93445506D01*
X151030694Y-93540211D01*
X151231172Y-93915279D01*
X151384593Y-94102223D01*
X151500971Y-94244030D01*
X151583353Y-94311639D01*
X153723360Y-96451647D01*
X153790970Y-96534030D01*
X154119720Y-96803828D01*
X154494789Y-97004307D01*
X154901762Y-97127761D01*
X155218939Y-97159000D01*
X155218949Y-97159000D01*
X155324999Y-97169445D01*
X155431050Y-97159000D01*
X157606061Y-97159000D01*
X157923238Y-97127761D01*
X158330211Y-97004307D01*
X158641214Y-96838072D01*
X158700000Y-96838072D01*
X158824482Y-96825812D01*
X158944180Y-96789502D01*
X159054494Y-96730537D01*
X159151185Y-96651185D01*
X159230537Y-96554494D01*
X159289502Y-96444180D01*
X159323076Y-96333500D01*
X160158503Y-96333500D01*
X160224000Y-96339951D01*
X160289497Y-96333500D01*
X160289508Y-96333500D01*
X160485412Y-96314205D01*
X160736777Y-96237954D01*
X160968437Y-96114129D01*
X161171489Y-95947489D01*
X161213250Y-95896603D01*
X168276354Y-88833500D01*
X170676924Y-88833500D01*
X170710498Y-88944180D01*
X170769463Y-89054494D01*
X170848815Y-89151185D01*
X170945506Y-89230537D01*
X171055820Y-89289502D01*
X171175518Y-89325812D01*
X171300000Y-89338072D01*
X173700000Y-89338072D01*
X173824482Y-89325812D01*
X173944180Y-89289502D01*
X174054494Y-89230537D01*
X174151185Y-89151185D01*
X174230537Y-89054494D01*
X174289502Y-88944180D01*
X174325812Y-88824482D01*
X174338072Y-88700000D01*
X174338072Y-86300000D01*
X174325812Y-86175518D01*
X174289502Y-86055820D01*
X174230537Y-85945506D01*
X174151185Y-85848815D01*
X174054494Y-85769463D01*
X173944180Y-85710498D01*
X173824482Y-85674188D01*
X173700000Y-85661928D01*
X171300000Y-85661928D01*
X171175518Y-85674188D01*
X171055820Y-85710498D01*
X170945506Y-85769463D01*
X170848815Y-85848815D01*
X170769463Y-85945506D01*
X170710498Y-86055820D01*
X170676924Y-86166500D01*
X167789497Y-86166500D01*
X167724000Y-86160049D01*
X167658502Y-86166500D01*
X167658492Y-86166500D01*
X167462588Y-86185795D01*
X167211223Y-86262046D01*
X166979563Y-86385871D01*
X166827394Y-86510752D01*
X166827391Y-86510755D01*
X166776511Y-86552511D01*
X166734755Y-86603391D01*
X159671647Y-93666500D01*
X159323076Y-93666500D01*
X159289502Y-93555820D01*
X159230537Y-93445506D01*
X159151185Y-93348815D01*
X159054494Y-93269463D01*
X158944180Y-93210498D01*
X158824482Y-93174188D01*
X158700000Y-93161928D01*
X158641214Y-93161928D01*
X158330211Y-92995693D01*
X157923238Y-92872239D01*
X157606061Y-92841000D01*
X156219287Y-92841000D01*
X155194000Y-91815714D01*
X155194000Y-89819268D01*
X155665000Y-89819268D01*
X155665000Y-90180732D01*
X155735518Y-90535250D01*
X155873844Y-90869199D01*
X156074662Y-91169744D01*
X156330256Y-91425338D01*
X156630801Y-91626156D01*
X156964750Y-91764482D01*
X157319268Y-91835000D01*
X157680732Y-91835000D01*
X158035250Y-91764482D01*
X158369199Y-91626156D01*
X158669744Y-91425338D01*
X158925338Y-91169744D01*
X159126156Y-90869199D01*
X159264482Y-90535250D01*
X159335000Y-90180732D01*
X159335000Y-89819268D01*
X159264482Y-89464750D01*
X159126156Y-89130801D01*
X158925338Y-88830256D01*
X158669744Y-88574662D01*
X158369199Y-88373844D01*
X158035250Y-88235518D01*
X157680732Y-88165000D01*
X157319268Y-88165000D01*
X156964750Y-88235518D01*
X156630801Y-88373844D01*
X156330256Y-88574662D01*
X156074662Y-88830256D01*
X155873844Y-89130801D01*
X155735518Y-89464750D01*
X155665000Y-89819268D01*
X155194000Y-89819268D01*
X155194000Y-82319268D01*
X170665000Y-82319268D01*
X170665000Y-82680732D01*
X170735518Y-83035250D01*
X170873844Y-83369199D01*
X171074662Y-83669744D01*
X171330256Y-83925338D01*
X171630801Y-84126156D01*
X171964750Y-84264482D01*
X172319268Y-84335000D01*
X172680732Y-84335000D01*
X173035250Y-84264482D01*
X173369199Y-84126156D01*
X173669744Y-83925338D01*
X173925338Y-83669744D01*
X174126156Y-83369199D01*
X174264482Y-83035250D01*
X174335000Y-82680732D01*
X174335000Y-82319268D01*
X174264482Y-81964750D01*
X174126156Y-81630801D01*
X173925338Y-81330256D01*
X173669744Y-81074662D01*
X173369199Y-80873844D01*
X173035250Y-80735518D01*
X172680732Y-80665000D01*
X172319268Y-80665000D01*
X171964750Y-80735518D01*
X171630801Y-80873844D01*
X171330256Y-81074662D01*
X171074662Y-81330256D01*
X170873844Y-81630801D01*
X170735518Y-81964750D01*
X170665000Y-82319268D01*
X155194000Y-82319268D01*
X155194000Y-78439268D01*
X155645000Y-78439268D01*
X155645000Y-78800732D01*
X155715518Y-79155250D01*
X155853844Y-79489199D01*
X156054662Y-79789744D01*
X156310256Y-80045338D01*
X156610801Y-80246156D01*
X156944750Y-80384482D01*
X157299268Y-80455000D01*
X157660732Y-80455000D01*
X158015250Y-80384482D01*
X158349199Y-80246156D01*
X158649744Y-80045338D01*
X158905338Y-79789744D01*
X159106156Y-79489199D01*
X159244482Y-79155250D01*
X159315000Y-78800732D01*
X159315000Y-78439268D01*
X159244482Y-78084750D01*
X159106156Y-77750801D01*
X158905338Y-77450256D01*
X158649744Y-77194662D01*
X158349199Y-76993844D01*
X158015250Y-76855518D01*
X157660732Y-76785000D01*
X157299268Y-76785000D01*
X156944750Y-76855518D01*
X156610801Y-76993844D01*
X156310256Y-77194662D01*
X156054662Y-77450256D01*
X155853844Y-77750801D01*
X155715518Y-78084750D01*
X155645000Y-78439268D01*
X155194000Y-78439268D01*
X155194000Y-74554286D01*
X156469287Y-73279000D01*
X157586061Y-73279000D01*
X157903238Y-73247761D01*
X158310211Y-73124307D01*
X158621214Y-72958072D01*
X158680000Y-72958072D01*
X158804482Y-72945812D01*
X158924180Y-72909502D01*
X159034494Y-72850537D01*
X159131185Y-72771185D01*
X159210537Y-72674494D01*
X159269502Y-72564180D01*
X159305812Y-72444482D01*
X159318072Y-72320000D01*
X159318072Y-72261214D01*
X159484307Y-71950211D01*
X159607761Y-71543238D01*
X159649446Y-71120000D01*
X159607761Y-70696762D01*
X159484307Y-70289789D01*
X159318072Y-69978786D01*
X159318072Y-69920000D01*
X159305812Y-69795518D01*
X159269502Y-69675820D01*
X159210537Y-69565506D01*
X159131185Y-69468815D01*
X159034494Y-69389463D01*
X158924180Y-69330498D01*
X158804482Y-69294188D01*
X158680000Y-69281928D01*
X158621214Y-69281928D01*
X158310211Y-69115693D01*
X157903238Y-68992239D01*
X157586061Y-68961000D01*
X155681050Y-68961000D01*
X155574999Y-68950555D01*
X155468949Y-68961000D01*
X155468939Y-68961000D01*
X155151762Y-68992239D01*
X154744789Y-69115693D01*
X154570198Y-69209014D01*
X154369719Y-69316172D01*
X154243456Y-69419794D01*
X154040970Y-69585970D01*
X153973360Y-69668353D01*
X151583358Y-72058356D01*
X151500970Y-72125970D01*
X151231172Y-72454720D01*
X151030693Y-72829790D01*
X150907239Y-73236763D01*
X150882752Y-73485388D01*
X150865554Y-73660000D01*
X132273419Y-73660000D01*
X132534744Y-73485388D01*
X132790338Y-73229794D01*
X132991156Y-72929249D01*
X133129482Y-72595300D01*
X133200000Y-72240782D01*
X133200000Y-71879318D01*
X133129482Y-71524800D01*
X132991156Y-71190851D01*
X132790338Y-70890306D01*
X132534744Y-70634712D01*
X132234199Y-70433894D01*
X131900250Y-70295568D01*
X131545732Y-70225050D01*
X131184268Y-70225050D01*
X130829750Y-70295568D01*
X130495801Y-70433894D01*
X130195256Y-70634712D01*
X129939662Y-70890306D01*
X129738844Y-71190851D01*
X129600518Y-71524800D01*
X129530000Y-71879318D01*
X128203072Y-71879318D01*
X128203072Y-70860050D01*
X128190812Y-70735568D01*
X128154502Y-70615870D01*
X128095537Y-70505556D01*
X128016185Y-70408865D01*
X127919494Y-70329513D01*
X127809180Y-70270548D01*
X127689482Y-70234238D01*
X127565000Y-70221978D01*
X125165000Y-70221978D01*
X125040518Y-70234238D01*
X124920820Y-70270548D01*
X124810506Y-70329513D01*
X124713815Y-70408865D01*
X124634463Y-70505556D01*
X124575498Y-70615870D01*
X124539188Y-70735568D01*
X124526928Y-70860050D01*
X116783500Y-70860050D01*
X116783500Y-69511632D01*
X116875338Y-69419794D01*
X117076156Y-69119249D01*
X117214482Y-68785300D01*
X117285000Y-68430782D01*
X117285000Y-68069318D01*
X117214482Y-67714800D01*
X117076156Y-67380851D01*
X116875338Y-67080306D01*
X116619744Y-66824712D01*
X116319199Y-66623894D01*
X115985250Y-66485568D01*
X115630732Y-66415050D01*
X115269268Y-66415050D01*
X114914750Y-66485568D01*
X114580801Y-66623894D01*
X114280256Y-66824712D01*
X114024662Y-67080306D01*
X113823844Y-67380851D01*
X113685518Y-67714800D01*
X113615000Y-68069318D01*
X113615000Y-68430782D01*
X113685518Y-68785300D01*
X113823844Y-69119249D01*
X114024662Y-69419794D01*
X114116500Y-69511632D01*
X114116501Y-84195050D01*
X114039268Y-84195050D01*
X113684750Y-84265568D01*
X113350801Y-84403894D01*
X113050256Y-84604712D01*
X112794662Y-84860306D01*
X112593844Y-85160851D01*
X112455518Y-85494800D01*
X112385000Y-85849318D01*
X112385000Y-86210782D01*
X112455518Y-86565300D01*
X112593844Y-86899249D01*
X112794662Y-87199794D01*
X112886500Y-87291632D01*
X112886501Y-100492645D01*
X105737741Y-107641406D01*
X105630128Y-107620000D01*
X105189872Y-107620000D01*
X104758075Y-107705890D01*
X104351331Y-107874369D01*
X103985271Y-108118962D01*
X103673962Y-108430271D01*
X103429369Y-108796331D01*
X103260890Y-109203075D01*
X103175000Y-109634872D01*
X100660000Y-109634872D01*
X100660000Y-95555000D01*
X103171928Y-95555000D01*
X103171928Y-98755000D01*
X103184188Y-98879482D01*
X103220498Y-98999180D01*
X103279463Y-99109494D01*
X103358815Y-99206185D01*
X103455506Y-99285537D01*
X103565820Y-99344502D01*
X103685518Y-99380812D01*
X103810000Y-99393072D01*
X107010000Y-99393072D01*
X107134482Y-99380812D01*
X107254180Y-99344502D01*
X107364494Y-99285537D01*
X107461185Y-99206185D01*
X107540537Y-99109494D01*
X107599502Y-98999180D01*
X107635812Y-98879482D01*
X107648072Y-98755000D01*
X107648072Y-95555000D01*
X107635812Y-95430518D01*
X107599502Y-95310820D01*
X107540537Y-95200506D01*
X107461185Y-95103815D01*
X107364494Y-95024463D01*
X107254180Y-94965498D01*
X107134482Y-94929188D01*
X107010000Y-94916928D01*
X103810000Y-94916928D01*
X103685518Y-94929188D01*
X103565820Y-94965498D01*
X103455506Y-95024463D01*
X103358815Y-95103815D01*
X103279463Y-95200506D01*
X103220498Y-95310820D01*
X103184188Y-95430518D01*
X103171928Y-95555000D01*
X100660000Y-95555000D01*
X100660000Y-84830050D01*
X107381928Y-84830050D01*
X107381928Y-87230050D01*
X107394188Y-87354532D01*
X107430498Y-87474230D01*
X107489463Y-87584544D01*
X107568815Y-87681235D01*
X107665506Y-87760587D01*
X107775820Y-87819552D01*
X107895518Y-87855862D01*
X108020000Y-87868122D01*
X110420000Y-87868122D01*
X110544482Y-87855862D01*
X110664180Y-87819552D01*
X110774494Y-87760587D01*
X110871185Y-87681235D01*
X110950537Y-87584544D01*
X111009502Y-87474230D01*
X111045812Y-87354532D01*
X111058072Y-87230050D01*
X111058072Y-84830050D01*
X111045812Y-84705568D01*
X111009502Y-84585870D01*
X110950537Y-84475556D01*
X110871185Y-84378865D01*
X110774494Y-84299513D01*
X110664180Y-84240548D01*
X110544482Y-84204238D01*
X110420000Y-84191978D01*
X108020000Y-84191978D01*
X107895518Y-84204238D01*
X107775820Y-84240548D01*
X107665506Y-84299513D01*
X107568815Y-84378865D01*
X107489463Y-84475556D01*
X107430498Y-84585870D01*
X107394188Y-84705568D01*
X107381928Y-84830050D01*
X100660000Y-84830050D01*
X100660000Y-67050050D01*
X106111928Y-67050050D01*
X106111928Y-69450050D01*
X106124188Y-69574532D01*
X106160498Y-69694230D01*
X106219463Y-69804544D01*
X106298815Y-69901235D01*
X106395506Y-69980587D01*
X106505820Y-70039552D01*
X106625518Y-70075862D01*
X106750000Y-70088122D01*
X109150000Y-70088122D01*
X109274482Y-70075862D01*
X109394180Y-70039552D01*
X109504494Y-69980587D01*
X109601185Y-69901235D01*
X109680537Y-69804544D01*
X109739502Y-69694230D01*
X109775812Y-69574532D01*
X109788072Y-69450050D01*
X109788072Y-67050050D01*
X109775812Y-66925568D01*
X109739502Y-66805870D01*
X109680537Y-66695556D01*
X109601185Y-66598865D01*
X109504494Y-66519513D01*
X109394180Y-66460548D01*
X109274482Y-66424238D01*
X109150000Y-66411978D01*
X106750000Y-66411978D01*
X106625518Y-66424238D01*
X106505820Y-66460548D01*
X106395506Y-66519513D01*
X106298815Y-66598865D01*
X106219463Y-66695556D01*
X106160498Y-66805870D01*
X106124188Y-66925568D01*
X106111928Y-67050050D01*
X100660000Y-67050050D01*
X100660000Y-55029392D01*
X100698970Y-54592738D01*
X100865000Y-54592738D01*
X100865000Y-55407262D01*
X101023906Y-56206135D01*
X101335611Y-56958657D01*
X101788136Y-57635909D01*
X102364091Y-58211864D01*
X103041343Y-58664389D01*
X103793865Y-58976094D01*
X104592738Y-59135000D01*
X105407262Y-59135000D01*
X106206135Y-58976094D01*
X106958657Y-58664389D01*
X107635909Y-58211864D01*
X108211864Y-57635909D01*
X108664389Y-56958657D01*
X108976094Y-56206135D01*
X109135000Y-55407262D01*
X109135000Y-55202922D01*
X137719000Y-55202922D01*
X137719000Y-55643178D01*
X137804890Y-56074975D01*
X137973369Y-56481719D01*
X138217962Y-56847779D01*
X138529271Y-57159088D01*
X138895331Y-57403681D01*
X139302075Y-57572160D01*
X139733872Y-57658050D01*
X140174128Y-57658050D01*
X140605925Y-57572160D01*
X141012669Y-57403681D01*
X141378729Y-57159088D01*
X141690038Y-56847779D01*
X141934631Y-56481719D01*
X142103110Y-56074975D01*
X142189000Y-55643178D01*
X142189000Y-55202922D01*
X142799000Y-55202922D01*
X142799000Y-55643178D01*
X142884890Y-56074975D01*
X143053369Y-56481719D01*
X143297962Y-56847779D01*
X143609271Y-57159088D01*
X143975331Y-57403681D01*
X144382075Y-57572160D01*
X144813872Y-57658050D01*
X145254128Y-57658050D01*
X145685925Y-57572160D01*
X146092669Y-57403681D01*
X146458729Y-57159088D01*
X146770038Y-56847779D01*
X147014631Y-56481719D01*
X147183110Y-56074975D01*
X147269000Y-55643178D01*
X147269000Y-55202922D01*
X152705000Y-55202922D01*
X152705000Y-55643178D01*
X152790890Y-56074975D01*
X152959369Y-56481719D01*
X153203962Y-56847779D01*
X153515271Y-57159088D01*
X153881331Y-57403681D01*
X154288075Y-57572160D01*
X154719872Y-57658050D01*
X155160128Y-57658050D01*
X155591925Y-57572160D01*
X155998669Y-57403681D01*
X156364729Y-57159088D01*
X156676038Y-56847779D01*
X156920631Y-56481719D01*
X157089110Y-56074975D01*
X157175000Y-55643178D01*
X157175000Y-55202922D01*
X157785000Y-55202922D01*
X157785000Y-55643178D01*
X157870890Y-56074975D01*
X158039369Y-56481719D01*
X158283962Y-56847779D01*
X158595271Y-57159088D01*
X158961331Y-57403681D01*
X159368075Y-57572160D01*
X159799872Y-57658050D01*
X160240128Y-57658050D01*
X160671925Y-57572160D01*
X161078669Y-57403681D01*
X161444729Y-57159088D01*
X161756038Y-56847779D01*
X162000631Y-56481719D01*
X162169110Y-56074975D01*
X162255000Y-55643178D01*
X162255000Y-55202922D01*
X162169110Y-54771125D01*
X162095220Y-54592738D01*
X190865000Y-54592738D01*
X190865000Y-55407262D01*
X191023906Y-56206135D01*
X191335611Y-56958657D01*
X191788136Y-57635909D01*
X192364091Y-58211864D01*
X193041343Y-58664389D01*
X193793865Y-58976094D01*
X194592738Y-59135000D01*
X195407262Y-59135000D01*
X196206135Y-58976094D01*
X196958657Y-58664389D01*
X197635909Y-58211864D01*
X198211864Y-57635909D01*
X198664389Y-56958657D01*
X198976094Y-56206135D01*
X199135000Y-55407262D01*
X199135000Y-54592738D01*
X198976094Y-53793865D01*
X198664389Y-53041343D01*
X198211864Y-52364091D01*
X197635909Y-51788136D01*
X196958657Y-51335611D01*
X196206135Y-51023906D01*
X195407262Y-50865000D01*
X194592738Y-50865000D01*
X193793865Y-51023906D01*
X193041343Y-51335611D01*
X192364091Y-51788136D01*
X191788136Y-52364091D01*
X191335611Y-53041343D01*
X191023906Y-53793865D01*
X190865000Y-54592738D01*
X162095220Y-54592738D01*
X162000631Y-54364381D01*
X161756038Y-53998321D01*
X161444729Y-53687012D01*
X161078669Y-53442419D01*
X160671925Y-53273940D01*
X160240128Y-53188050D01*
X159799872Y-53188050D01*
X159368075Y-53273940D01*
X158961331Y-53442419D01*
X158595271Y-53687012D01*
X158283962Y-53998321D01*
X158039369Y-54364381D01*
X157870890Y-54771125D01*
X157785000Y-55202922D01*
X157175000Y-55202922D01*
X157089110Y-54771125D01*
X156920631Y-54364381D01*
X156676038Y-53998321D01*
X156364729Y-53687012D01*
X155998669Y-53442419D01*
X155591925Y-53273940D01*
X155160128Y-53188050D01*
X154719872Y-53188050D01*
X154288075Y-53273940D01*
X153881331Y-53442419D01*
X153515271Y-53687012D01*
X153203962Y-53998321D01*
X152959369Y-54364381D01*
X152790890Y-54771125D01*
X152705000Y-55202922D01*
X147269000Y-55202922D01*
X147183110Y-54771125D01*
X147014631Y-54364381D01*
X146770038Y-53998321D01*
X146458729Y-53687012D01*
X146092669Y-53442419D01*
X145685925Y-53273940D01*
X145254128Y-53188050D01*
X144813872Y-53188050D01*
X144382075Y-53273940D01*
X143975331Y-53442419D01*
X143609271Y-53687012D01*
X143297962Y-53998321D01*
X143053369Y-54364381D01*
X142884890Y-54771125D01*
X142799000Y-55202922D01*
X142189000Y-55202922D01*
X142103110Y-54771125D01*
X141934631Y-54364381D01*
X141690038Y-53998321D01*
X141378729Y-53687012D01*
X141012669Y-53442419D01*
X140605925Y-53273940D01*
X140174128Y-53188050D01*
X139733872Y-53188050D01*
X139302075Y-53273940D01*
X138895331Y-53442419D01*
X138529271Y-53687012D01*
X138217962Y-53998321D01*
X137973369Y-54364381D01*
X137804890Y-54771125D01*
X137719000Y-55202922D01*
X109135000Y-55202922D01*
X109135000Y-54592738D01*
X108976094Y-53793865D01*
X108664389Y-53041343D01*
X108211864Y-52364091D01*
X107635909Y-51788136D01*
X106958657Y-51335611D01*
X106206135Y-51023906D01*
X105407262Y-50865000D01*
X104592738Y-50865000D01*
X103793865Y-51023906D01*
X103041343Y-51335611D01*
X102364091Y-51788136D01*
X101788136Y-52364091D01*
X101335611Y-53041343D01*
X101023906Y-53793865D01*
X100865000Y-54592738D01*
X100698970Y-54592738D01*
X100731173Y-54231917D01*
X100934656Y-53488109D01*
X101266638Y-52792095D01*
X101716626Y-52165870D01*
X102270403Y-51629223D01*
X102910451Y-51199129D01*
X103616553Y-50889171D01*
X104371457Y-50707935D01*
X105024220Y-50659999D01*
X194970888Y-50660025D01*
M02*
