M48
; DRILL file {KiCad (5.1.5)-3} date 21.4.2020. 19:46:40
; FORMAT={-:-/ absolute / inch / decimal}
; #@! TF.CreationDate,2020-04-21T19:46:40+02:00
; #@! TF.GenerationSoftware,Kicad,Pcbnew,(5.1.5)-3
; #@! TF.FileFunction,Plated,1,2,PTH
FMAT,2
INCH
T1C0.0315
T2C0.0394
T3C0.0472
T4C0.0591
T5C0.0630
T6C0.1378
%
G90
G05
T1
X5.1Y-5.1
X5.2378Y-5.1
X6.7Y-5.1
X6.8378Y-5.1
X4.4Y-5.1
X4.5378Y-5.1
T2
X5.97Y-5.1
X6.1Y-5.1
X7.4803Y-5.0
X7.4803Y-5.1969
T3
X4.975Y-2.837
X5.1719Y-2.837
X6.2008Y-3.5433
X6.2008Y-3.7402
X6.7913Y-3.248
X6.7913Y-3.4449
X4.25Y-2.687
X4.5453Y-2.687
X4.3Y-3.387
X4.4969Y-3.387
X6.2Y-2.8
X6.2Y-3.0953
T4
X4.5Y-5.692
X4.7Y-5.692
X4.9Y-5.692
X5.1Y-5.692
X6.75Y-5.692
X6.95Y-5.692
X7.15Y-5.692
X7.35Y-5.692
X5.51Y-2.182
X5.71Y-2.182
X6.1Y-2.182
X6.3Y-2.182
T5
X5.275Y-3.725
X5.775Y-3.725
X7.185Y-3.925
X7.685Y-3.925
X6.675Y-4.15
X6.675Y-4.65
X4.15Y-3.825
X4.15Y-4.325
T6
X7.6772Y-5.7087
X7.6772Y-2.1654
X4.1339Y-5.7087
X4.1339Y-2.1654
T0
M30
